Russolo-72ptExtraBold.ufo
<glyph name="exclam" format="2">
  <advance width="544"/>
  <unicode hex="0021"/>
  <note>
exclam
</note>
  <outline>
    <contour>
      <point x="249" y="324" type="curve"/>
      <point x="295" y="324" type="line"/>
      <point x="295" y="890"/>
      <point x="428" y="1092"/>
      <point x="428" y="1230" type="curve" smooth="yes"/>
      <point x="428" y="1282"/>
      <point x="272" y="1338"/>
      <point x="295" y="1477" type="curve"/>
      <point x="249" y="1477" type="line"/>
      <point x="272" y="1338"/>
      <point x="116" y="1282"/>
      <point x="116" y="1230" type="curve" smooth="yes"/>
      <point x="116" y="1092"/>
      <point x="249" y="890"/>
    </contour>
    <contour>
      <point x="272" y="-27" type="curve" smooth="yes"/>
      <point x="345" y="-27"/>
      <point x="405" y="32"/>
      <point x="405" y="106" type="curve" smooth="yes"/>
      <point x="405" y="179"/>
      <point x="345" y="238"/>
      <point x="272" y="238" type="curve" smooth="yes"/>
      <point x="199" y="238"/>
      <point x="139" y="179"/>
      <point x="139" y="106" type="curve" smooth="yes"/>
      <point x="139" y="32"/>
      <point x="199" y="-27"/>
    </contour>
  </outline>
</glyph>
<glyph name="quotedbl" format="2">
  <advance width="811"/>
  <unicode hex="0022"/>
  <note>
quotedbl
</note>
  <outline>
    <contour>
      <point x="491" y="839" type="line"/>
      <point x="658" y="839" type="line"/>
      <point x="678" y="1369" type="line"/>
      <point x="475" y="1369" type="line"/>
    </contour>
    <contour>
      <point x="151" y="839" type="line"/>
      <point x="318" y="839" type="line"/>
      <point x="338" y="1369" type="line"/>
      <point x="135" y="1369" type="line"/>
    </contour>
  </outline>
</glyph>
<glyph name="parenright" format="2">
  <advance width="577"/>
  <unicode hex="0029"/>
  <note>
parenright
</note>
  <outline>
    <contour>
      <point x="141" y="-428" type="line"/>
      <point x="396" y="-74"/>
      <point x="503" y="235"/>
      <point x="503" y="596" type="curve" smooth="yes"/>
      <point x="503" y="963"/>
      <point x="392" y="1279"/>
      <point x="143" y="1603" type="curve"/>
      <point x="48" y="1568" type="line"/>
      <point x="197" y="1227"/>
      <point x="273" y="913"/>
      <point x="273" y="586" type="curve" smooth="yes"/>
      <point x="273" y="251"/>
      <point x="192" y="-71"/>
      <point x="48" y="-382" type="curve"/>
    </contour>
  </outline>
</glyph>
<glyph name="asterisk" format="2">
  <advance width="834"/>
  <unicode hex="002A"/>
  <note>
asterisk
</note>
  <outline>
    <contour>
      <point x="430" y="1130" type="line"/>
      <point x="562" y="1253"/>
      <point x="622" y="1178"/>
      <point x="687" y="1216" type="curve" smooth="yes"/>
      <point x="725" y="1238"/>
      <point x="687" y="1282"/>
      <point x="729" y="1294" type="curve"/>
      <point x="696" y="1351" type="line"/>
      <point x="664" y="1321"/>
      <point x="645" y="1376"/>
      <point x="607" y="1354" type="curve" smooth="yes"/>
      <point x="545" y="1318"/>
      <point x="577" y="1227"/>
      <point x="405" y="1174" type="curve"/>
    </contour>
    <contour>
      <point x="138" y="953" type="line"/>
      <point x="170" y="983"/>
      <point x="189" y="928"/>
      <point x="227" y="950" type="curve" smooth="yes"/>
      <point x="289" y="986"/>
      <point x="257" y="1077"/>
      <point x="430" y="1130" type="curve"/>
      <point x="405" y="1174" type="line"/>
      <point x="272" y="1051"/>
      <point x="212" y="1126"/>
      <point x="147" y="1088" type="curve" smooth="yes"/>
      <point x="109" y="1066"/>
      <point x="147" y="1022"/>
      <point x="105" y="1010" type="curve"/>
    </contour>
    <contour>
      <point x="384" y="811" type="curve"/>
      <point x="450" y="811" type="line"/>
      <point x="440" y="853"/>
      <point x="497" y="841"/>
      <point x="497" y="886" type="curve" smooth="yes"/>
      <point x="497" y="961"/>
      <point x="402" y="976"/>
      <point x="442" y="1152" type="curve"/>
      <point x="392" y="1152" type="line"/>
      <point x="432" y="976"/>
      <point x="337" y="961"/>
      <point x="337" y="886" type="curve" smooth="yes"/>
      <point x="337" y="841"/>
      <point x="394" y="853"/>
    </contour>
    <contour>
      <point x="405" y="1130" type="curve"/>
      <point x="430" y="1174" type="line"/>
      <point x="257" y="1227"/>
      <point x="289" y="1318"/>
      <point x="227" y="1354" type="curve" smooth="yes"/>
      <point x="189" y="1376"/>
      <point x="170" y="1321"/>
      <point x="138" y="1351" type="curve"/>
      <point x="105" y="1294" type="line"/>
      <point x="147" y="1282"/>
      <point x="109" y="1238"/>
      <point x="147" y="1216" type="curve" smooth="yes"/>
      <point x="212" y="1178"/>
      <point x="272" y="1253"/>
    </contour>
    <contour>
      <point x="607" y="950" type="curve" smooth="yes"/>
      <point x="645" y="928"/>
      <point x="664" y="983"/>
      <point x="696" y="953" type="curve"/>
      <point x="729" y="1010" type="line"/>
      <point x="687" y="1022"/>
      <point x="725" y="1066"/>
      <point x="687" y="1088" type="curve" smooth="yes"/>
      <point x="622" y="1126"/>
      <point x="562" y="1051"/>
      <point x="430" y="1174" type="curve"/>
      <point x="405" y="1130" type="line"/>
      <point x="577" y="1077"/>
      <point x="545" y="986"/>
    </contour>
    <contour>
      <point x="392" y="1152" type="curve"/>
      <point x="442" y="1152" type="line"/>
      <point x="402" y="1328"/>
      <point x="497" y="1343"/>
      <point x="497" y="1418" type="curve" smooth="yes"/>
      <point x="497" y="1463"/>
      <point x="440" y="1451"/>
      <point x="450" y="1493" type="curve"/>
      <point x="384" y="1493" type="line"/>
      <point x="394" y="1451"/>
      <point x="337" y="1463"/>
      <point x="337" y="1418" type="curve" smooth="yes"/>
      <point x="337" y="1343"/>
      <point x="432" y="1328"/>
    </contour>
  </outline>
</glyph>
<glyph name="plus" format="2">
  <advance width="1044"/>
  <unicode hex="002B"/>
  <note>
plus
</note>
  <outline>
    <contour>
      <point x="99" y="567" type="line"/>
      <point x="945" y="567" type="line"/>
      <point x="945" y="769" type="line"/>
      <point x="99" y="769" type="line"/>
    </contour>
    <contour>
      <point x="421" y="245" type="line"/>
      <point x="623" y="245" type="line"/>
      <point x="623" y="1091" type="line"/>
      <point x="421" y="1091" type="line"/>
    </contour>
  </outline>
</glyph>
<glyph name="hyphen" format="2">
  <advance width="764"/>
  <unicode hex="002D"/>
  <note>
hyphen
</note>
  <outline>
    <contour>
      <point x="60" y="447" type="line"/>
      <point x="642" y="447" type="line"/>
      <point x="704" y="617" type="line"/>
      <point x="122" y="617" type="line"/>
    </contour>
  </outline>
</glyph>
<glyph name="slash" format="2">
  <advance width="646"/>
  <unicode hex="002F"/>
  <note>
slash
</note>
  <outline>
    <contour>
      <point x="3" y="-419" type="line"/>
      <point x="161" y="-419" type="line"/>
      <point x="643" y="1511" type="line"/>
      <point x="485" y="1511" type="line"/>
    </contour>
  </outline>
</glyph>
<glyph name="zero" format="2">
  <advance width="1321"/>
  <unicode hex="0030"/>
  <note>
zero
</note>
  <anchor x="650" y="719" name="center"/>
  <outline>
    <contour>
      <point x="670" y="-36" type="curve" smooth="yes"/>
      <point x="1035" y="-25"/>
      <point x="1235" y="244"/>
      <point x="1235" y="715" type="curve" smooth="yes"/>
      <point x="1235" y="1116"/>
      <point x="1022" y="1475"/>
      <point x="665" y="1475" type="curve" smooth="yes"/>
      <point x="310" y="1475"/>
      <point x="85" y="1181"/>
      <point x="85" y="722" type="curve" smooth="yes"/>
      <point x="85" y="330"/>
      <point x="283" y="-48"/>
    </contour>
    <contour>
      <point x="670" y="-7" type="curve" smooth="yes"/>
      <point x="531" y="-12"/>
      <point x="388" y="291"/>
      <point x="388" y="738" type="curve" smooth="yes"/>
      <point x="388" y="1156"/>
      <point x="517" y="1441"/>
      <point x="649" y="1445" type="curve" smooth="yes"/>
      <point x="788" y="1450"/>
      <point x="932" y="1145"/>
      <point x="932" y="698" type="curve" smooth="yes"/>
      <point x="932" y="281"/>
      <point x="803" y="-3"/>
    </contour>
  </outline>
</glyph>
<glyph name="one" format="2">
  <advance width="709"/>
  <unicode hex="0031"/>
  <note>
one
</note>
  <outline>
    <contour>
      <point x="263" y="0" type="line"/>
      <point x="543" y="0" type="line"/>
      <point x="543" y="1431" type="line"/>
      <point x="450" y="1431" type="line"/>
      <point x="21" y="914" type="line"/>
      <point x="93" y="863" type="line"/>
      <point x="340" y="1160" type="line"/>
      <point x="263" y="1185" type="line"/>
    </contour>
  </outline>
</glyph>
<glyph name="four" format="2">
  <advance width="1096"/>
  <unicode hex="0034"/>
  <note>
four
</note>
  <outline>
    <contour>
      <point x="645" y="0" type="line"/>
      <point x="901" y="0" type="line"/>
      <point x="901" y="504" type="line"/>
      <point x="750" y="353" type="line"/>
      <point x="1069" y="353" type="line"/>
      <point x="1069" y="392" type="line"/>
      <point x="750" y="392" type="line"/>
      <point x="901" y="328" type="line"/>
      <point x="901" y="759" type="line"/>
      <point x="645" y="759" type="line"/>
      <point x="645" y="328" type="line"/>
      <point x="796" y="392" type="line"/>
      <point x="91" y="392" type="line"/>
      <point x="76" y="365" type="line"/>
      <point x="343" y="684"/>
      <point x="663" y="1096"/>
      <point x="786" y="1459" type="curve"/>
      <point x="605" y="1459" type="line"/>
      <point x="480" y="1069"/>
      <point x="259" y="708"/>
      <point x="26" y="353" type="curve"/>
      <point x="796" y="353" type="line"/>
      <point x="645" y="504" type="line"/>
    </contour>
  </outline>
</glyph>
<glyph name="five" format="2">
  <advance width="1085"/>
  <unicode hex="0035"/>
  <note>
five
</note>
  <outline>
    <contour>
      <point x="467" y="-33" type="curve" smooth="yes"/>
      <point x="800" y="-33"/>
      <point x="1020" y="163"/>
      <point x="1020" y="431" type="curve" smooth="yes"/>
      <point x="1020" y="765"/>
      <point x="703" y="865"/>
      <point x="495" y="865" type="curve" smooth="yes"/>
      <point x="402" y="865"/>
      <point x="299" y="845"/>
      <point x="164" y="731" type="curve"/>
      <point x="185" y="727" type="line"/>
      <point x="302" y="1343" type="line"/>
      <point x="235" y="1224" type="line"/>
      <point x="916" y="1224" type="line"/>
      <point x="916" y="1430" type="line"/>
      <point x="230" y="1430" type="line"/>
      <point x="104" y="731" type="line"/>
      <point x="172" y="715" type="line"/>
      <point x="307" y="825"/>
      <point x="422" y="829"/>
      <point x="453" y="829" type="curve" smooth="yes"/>
      <point x="648" y="829"/>
      <point x="734" y="708"/>
      <point x="734" y="423" type="curve" smooth="yes"/>
      <point x="734" y="314"/>
      <point x="778" y="-1"/>
      <point x="461" y="-1" type="curve" smooth="yes"/>
      <point x="266" y="-1"/>
      <point x="121" y="119"/>
      <point x="71" y="171" type="curve"/>
      <point x="53" y="155" type="line"/>
      <point x="126" y="74"/>
      <point x="243" y="-33"/>
    </contour>
  </outline>
</glyph>
<glyph name="six" format="2">
  <advance width="1139"/>
  <unicode hex="0036"/>
  <note>
six
</note>
  <outline>
    <contour>
      <point x="576" y="-37" type="curve" smooth="yes"/>
      <point x="869" y="-37"/>
      <point x="1084" y="101"/>
      <point x="1084" y="398" type="curve" smooth="yes"/>
      <point x="1084" y="654"/>
      <point x="902" y="853"/>
      <point x="607" y="853" type="curve" smooth="yes"/>
      <point x="399" y="853"/>
      <point x="327" y="754"/>
      <point x="277" y="593" type="curve"/>
      <point x="305" y="657" type="line"/>
      <point x="332" y="834"/>
      <point x="407" y="1027"/>
      <point x="482" y="1139" type="curve" smooth="yes"/>
      <point x="585" y="1292"/>
      <point x="778" y="1410"/>
      <point x="908" y="1431" type="curve"/>
      <point x="908" y="1473" type="line"/>
      <point x="609" y="1394"/>
      <point x="391" y="1256"/>
      <point x="255" y="1061" type="curve" smooth="yes"/>
      <point x="135" y="888"/>
      <point x="75" y="690"/>
      <point x="75" y="487" type="curve" smooth="yes"/>
      <point x="75" y="117"/>
      <point x="267" y="-37"/>
    </contour>
    <contour>
      <point x="590" y="-8" type="curve" smooth="yes"/>
      <point x="381" y="-8"/>
      <point x="322" y="161"/>
      <point x="320" y="428" type="curve" smooth="yes"/>
      <point x="318" y="718"/>
      <point x="456" y="823"/>
      <point x="610" y="823" type="curve" smooth="yes"/>
      <point x="793" y="823"/>
      <point x="823" y="627"/>
      <point x="823" y="408" type="curve" smooth="yes"/>
      <point x="823" y="67"/>
      <point x="729" y="-8"/>
    </contour>
  </outline>
</glyph>
<glyph name="seven" format="2">
  <advance width="1039"/>
  <unicode hex="0037"/>
  <note>
seven
</note>
  <outline>
    <contour>
      <point x="283" y="0" type="curve"/>
      <point x="506" y="0" type="line"/>
      <point x="503" y="570"/>
      <point x="801" y="1096"/>
      <point x="1012" y="1430" type="curve"/>
      <point x="42" y="1430" type="line"/>
      <point x="42" y="1213" type="line"/>
      <point x="831" y="1213" type="line"/>
      <point x="902" y="1335" type="line"/>
      <point x="715" y="1068"/>
      <point x="371" y="586"/>
    </contour>
  </outline>
</glyph>
<glyph name="nine" format="2">
  <advance width="1141"/>
  <unicode hex="0039"/>
  <note>
nine
</note>
  <outline>
    <contour>
      <point x="232" y="-43" type="line"/>
      <point x="435" y="11"/>
      <point x="600" y="92"/>
      <point x="728" y="201" type="curve" smooth="yes"/>
      <point x="789" y="253"/>
      <point x="842" y="311"/>
      <point x="886" y="375" type="curve" smooth="yes"/>
      <point x="1005" y="548"/>
      <point x="1065" y="751"/>
      <point x="1065" y="954" type="curve" smooth="yes"/>
      <point x="1065" y="1328"/>
      <point x="873" y="1484"/>
      <point x="564" y="1484" type="curve" smooth="yes"/>
      <point x="271" y="1484"/>
      <point x="56" y="1344"/>
      <point x="56" y="1044" type="curve" smooth="yes"/>
      <point x="56" y="785"/>
      <point x="238" y="584"/>
      <point x="533" y="584" type="curve" smooth="yes"/>
      <point x="741" y="584"/>
      <point x="813" y="684"/>
      <point x="863" y="847" type="curve"/>
      <point x="835" y="782" type="line"/>
      <point x="808" y="603"/>
      <point x="733" y="408"/>
      <point x="658" y="295" type="curve" smooth="yes"/>
      <point x="554" y="139"/>
      <point x="362" y="21"/>
      <point x="232" y="-1" type="curve"/>
    </contour>
    <contour>
      <point x="530" y="614" type="curve" smooth="yes"/>
      <point x="347" y="614"/>
      <point x="317" y="812"/>
      <point x="317" y="1034" type="curve" smooth="yes"/>
      <point x="317" y="1378"/>
      <point x="411" y="1454"/>
      <point x="550" y="1454" type="curve" smooth="yes"/>
      <point x="759" y="1454"/>
      <point x="818" y="1283"/>
      <point x="820" y="1014" type="curve" smooth="yes"/>
      <point x="822" y="720"/>
      <point x="684" y="614"/>
    </contour>
  </outline>
</glyph>
<glyph name="at" format="2">
  <advance width="1760"/>
  <unicode hex="0040"/>
  <note>
at
</note>
  <guideline x="996" y="749" angle="75.9201"/>
  <outline>
    <contour>
      <point x="917" y="-45" type="curve" smooth="yes"/>
      <point x="1229" y="-45"/>
      <point x="1497" y="126"/>
      <point x="1570" y="267" type="curve"/>
      <point x="1408" y="267" type="line"/>
      <point x="1333" y="137"/>
      <point x="1144" y="1"/>
      <point x="917" y="1" type="curve" smooth="yes"/>
      <point x="563" y="1"/>
      <point x="262" y="332"/>
      <point x="262" y="716" type="curve" smooth="yes"/>
      <point x="262" y="1098"/>
      <point x="592" y="1429"/>
      <point x="917" y="1429" type="curve" smooth="yes"/>
      <point x="1223" y="1429"/>
      <point x="1496" y="1157"/>
      <point x="1496" y="842" type="curve" smooth="yes"/>
      <point x="1496" y="781"/>
      <point x="1486" y="704"/>
      <point x="1465" y="628" type="curve" smooth="yes"/>
      <point x="1426" y="492"/>
      <point x="1352" y="365"/>
      <point x="1225" y="365" type="curve" smooth="yes"/>
      <point x="1159" y="365"/>
      <point x="1132" y="400"/>
      <point x="1125" y="440" type="curve"/>
      <point x="1280" y="1058" type="line"/>
      <point x="1073" y="1058" type="line"/>
      <point x="1055" y="984" type="line"/>
      <point x="1019" y="1067"/>
      <point x="966" y="1078"/>
      <point x="910" y="1078" type="curve" smooth="yes"/>
      <point x="648" y="1078"/>
      <point x="421" y="818"/>
      <point x="421" y="568" type="curve" smooth="yes"/>
      <point x="421" y="386"/>
      <point x="547" y="298"/>
      <point x="728" y="298" type="curve" smooth="yes"/>
      <point x="827" y="298"/>
      <point x="893" y="324"/>
      <point x="967" y="440" type="curve"/>
      <point x="991" y="336"/>
      <point x="1091" y="311"/>
      <point x="1189" y="311" type="curve" smooth="yes"/>
      <point x="1281" y="311"/>
      <point x="1359" y="333"/>
      <point x="1424" y="372" type="curve" smooth="yes"/>
      <point x="1479" y="405"/>
      <point x="1524" y="450"/>
      <point x="1559" y="503" type="curve" smooth="yes"/>
      <point x="1621" y="597"/>
      <point x="1652" y="716"/>
      <point x="1652" y="838" type="curve" smooth="yes"/>
      <point x="1652" y="1243"/>
      <point x="1315" y="1475"/>
      <point x="917" y="1475" type="curve" smooth="yes"/>
      <point x="464" y="1475"/>
      <point x="106" y="1134"/>
      <point x="106" y="716" type="curve" smooth="yes"/>
      <point x="106" y="295"/>
      <point x="476" y="-45"/>
    </contour>
    <contour>
      <point x="759" y="362" type="curve" smooth="yes"/>
      <point x="693" y="362"/>
      <point x="635" y="435"/>
      <point x="635" y="572" type="curve" smooth="yes"/>
      <point x="635" y="845"/>
      <point x="816" y="1013"/>
      <point x="925" y="1013" type="curve" smooth="yes"/>
      <point x="995" y="1013"/>
      <point x="985" y="914"/>
      <point x="985" y="845" type="curve" smooth="yes"/>
      <point x="985" y="598"/>
      <point x="877" y="362"/>
    </contour>
  </outline>
</glyph>
<glyph name="C" format="2">
  <advance width="1528"/>
  <unicode hex="0043"/>
  <note>
C
</note>
  <anchor x="802" y="-20" name="bottom"/>
  <anchor x="826" y="1440" name="top"/>
  <outline>
    <contour>
      <point x="831" y="-41" type="curve" smooth="yes"/>
      <point x="1114" y="-41"/>
      <point x="1366" y="109"/>
      <point x="1481" y="333" type="curve"/>
      <point x="1176" y="343" type="line"/>
      <point x="1092" y="134"/>
      <point x="973" y="29"/>
      <point x="825" y="29" type="curve" smooth="yes"/>
      <point x="584" y="29"/>
      <point x="415" y="309"/>
      <point x="415" y="715" type="curve" smooth="yes"/>
      <point x="415" y="1126"/>
      <point x="587" y="1405"/>
      <point x="826" y="1405" type="curve" smooth="yes"/>
      <point x="973" y="1405"/>
      <point x="1091" y="1300"/>
      <point x="1171" y="1093" type="curve"/>
      <point x="1474" y="1103" type="line"/>
      <point x="1388" y="1293"/>
      <point x="1113" y="1475"/>
      <point x="824" y="1475" type="curve" smooth="yes"/>
      <point x="428" y="1475"/>
      <point x="73" y="1155"/>
      <point x="73" y="718" type="curve" smooth="yes"/>
      <point x="73" y="302"/>
      <point x="404" y="-41"/>
    </contour>
  </outline>
</glyph>
<glyph name="E" format="2">
  <advance width="1201"/>
  <unicode hex="0045"/>
  <note>
E
</note>
  <anchor x="594" y="0" name="bottom"/>
  <anchor x="1077" y="0" name="ogonek"/>
  <anchor x="594" y="1445" name="top"/>
  <anchor x="9" y="1445" name="topleft"/>
  <outline>
    <contour>
      <point x="170" y="0" type="line"/>
      <point x="1134" y="0" type="line"/>
      <point x="1134" y="26" type="line"/>
      <point x="249" y="26" type="line"/>
      <point x="430" y="13" type="line"/>
      <point x="430" y="752" type="line"/>
      <point x="277" y="715" type="line"/>
      <point x="1134" y="715" type="line"/>
      <point x="1134" y="741" type="line"/>
      <point x="249" y="741" type="line"/>
      <point x="430" y="708" type="line"/>
      <point x="430" y="1431" type="line"/>
      <point x="237" y="1419" type="line"/>
      <point x="1134" y="1419" type="line"/>
      <point x="1134" y="1445" type="line"/>
      <point x="170" y="1445" type="line"/>
    </contour>
  </outline>
</glyph>
<glyph name="F" format="2">
  <advance width="1180"/>
  <unicode hex="0046"/>
  <note>
F
</note>
  <anchor x="560" y="0" name="bottom"/>
  <anchor x="560" y="1440" name="top"/>
  <outline>
    <contour>
      <point x="170" y="0" type="line"/>
      <point x="430" y="0" type="line"/>
      <point x="430" y="702" type="line"/>
      <point x="277" y="665" type="line"/>
      <point x="1134" y="665" type="line"/>
      <point x="1134" y="691" type="line"/>
      <point x="249" y="691" type="line"/>
      <point x="430" y="658" type="line"/>
      <point x="430" y="1431" type="line"/>
      <point x="207" y="1419" type="line"/>
      <point x="1134" y="1419" type="line"/>
      <point x="1134" y="1445" type="line"/>
      <point x="170" y="1445" type="line"/>
    </contour>
  </outline>
</glyph>
<glyph name="I" format="2">
  <advance width="618"/>
  <unicode hex="0049"/>
  <note>
I
</note>
  <anchor x="309" y="0" name="bottom"/>
  <anchor x="358" y="0" name="ogonek"/>
  <anchor x="309" y="1440" name="top"/>
  <anchor x="18" y="1440" name="topleft"/>
  <outline>
    <contour>
      <point x="169" y="0" type="line"/>
      <point x="449" y="0" type="line"/>
      <point x="449" y="1445" type="line"/>
      <point x="169" y="1445" type="line"/>
    </contour>
  </outline>
</glyph>
<glyph name="K" format="2">
  <advance width="1418"/>
  <unicode hex="004B"/>
  <note>
K
</note>
  <guideline x="964" y="1108" angle="50.0776"/>
  <anchor x="734" y="0" name="bottom"/>
  <anchor x="734" y="1440" name="top"/>
  <outline>
    <contour>
      <point x="169" y="0" type="line"/>
      <point x="449" y="0" type="line"/>
      <point x="449" y="1445" type="line"/>
      <point x="169" y="1445" type="line"/>
    </contour>
    <contour>
      <point x="390" y="412" type="line"/>
      <point x="1206" y="1445" type="line"/>
      <point x="1103" y="1445" type="line"/>
      <point x="350" y="492" type="line"/>
    </contour>
    <contour>
      <point x="1058" y="0" type="line"/>
      <point x="1395" y="0" type="line"/>
      <point x="669" y="835" type="line"/>
      <point x="515" y="624" type="line"/>
    </contour>
  </outline>
</glyph>
<glyph name="L" format="2">
  <advance width="1158"/>
  <unicode hex="004C"/>
  <note>
L
</note>
  <anchor x="535" y="0" name="bottom"/>
  <anchor x="295" y="716" name="center"/>
  <anchor x="804" y="724" name="dot"/>
  <anchor x="1076" y="10" name="ogonek"/>
  <anchor x="355" y="1455" name="top"/>
  <anchor x="8" y="1455" name="topleft"/>
  <anchor x="913" y="1455" name="topright"/>
  <outline>
    <contour>
      <point x="169" y="0" type="line"/>
      <point x="1133" y="0" type="line"/>
      <point x="1133" y="26" type="line"/>
      <point x="248" y="26" type="line"/>
      <point x="429" y="13" type="line"/>
      <point x="429" y="1445" type="line"/>
      <point x="169" y="1445" type="line"/>
    </contour>
  </outline>
</glyph>
<glyph name="N" format="2">
  <advance width="1544"/>
  <unicode hex="004E"/>
  <note>
N
</note>
  <anchor x="772" y="0" name="bottom"/>
  <anchor x="772" y="1440" name="top"/>
  <outline>
    <contour>
      <point x="170" y="0" type="line"/>
      <point x="232" y="0" type="line"/>
      <point x="232" y="1310" type="line"/>
      <point x="186" y="1110" type="line"/>
      <point x="1338" y="0" type="line"/>
      <point x="1374" y="0" type="line"/>
      <point x="1374" y="1445" type="line"/>
      <point x="1312" y="1445" type="line"/>
      <point x="1312" y="109" type="line"/>
      <point x="1358" y="329" type="line"/>
      <point x="200" y="1445" type="line"/>
      <point x="170" y="1445" type="line"/>
    </contour>
  </outline>
</glyph>
<glyph name="O" format="2">
  <advance width="1652"/>
  <unicode hex="004F"/>
  <note>
O
</note>
  <anchor x="826" y="0" name="bottom"/>
  <anchor x="826" y="715" name="center"/>
  <anchor x="1014" y="0" name="ogonek"/>
  <anchor x="826" y="1430" name="top"/>
  <anchor x="25" y="1430" name="topleft"/>
  <anchor x="1627" y="1430" name="topright"/>
  <outline>
    <contour>
      <point x="840" y="-41" type="curve" smooth="yes"/>
      <point x="1268" y="-26"/>
      <point x="1585" y="313"/>
      <point x="1578" y="738" type="curve" smooth="yes"/>
      <point x="1570" y="1169"/>
      <point x="1231" y="1489"/>
      <point x="814" y="1474" type="curve" smooth="yes"/>
      <point x="392" y="1459"/>
      <point x="66" y="1112"/>
      <point x="74" y="685" type="curve" smooth="yes"/>
      <point x="82" y="260"/>
      <point x="411" y="-56"/>
    </contour>
    <contour>
      <point x="839" y="-11" type="curve" smooth="yes"/>
      <point x="602" y="-19"/>
      <point x="381" y="286"/>
      <point x="374" y="696" type="curve" smooth="yes"/>
      <point x="367" y="1105"/>
      <point x="576" y="1436"/>
      <point x="814" y="1444" type="curve" smooth="yes"/>
      <point x="1051" y="1452"/>
      <point x="1271" y="1136"/>
      <point x="1278" y="727" type="curve" smooth="yes"/>
      <point x="1285" y="319"/>
      <point x="1077" y="-3"/>
    </contour>
  </outline>
</glyph>
<glyph name="Q" format="2">
  <advance width="1652"/>
  <unicode hex="0051"/>
  <note>
Q
</note>
  <anchor x="825" y="0" name="bottom"/>
  <anchor x="825" y="1430" name="top"/>
  <anchor x="826" y="715" name="center"/>
  <anchor x="1014" y="0" name="ogonek"/>
  <anchor x="25" y="1430" name="topleft"/>
  <anchor x="1377" y="1430" name="topright"/>
  <outline>
    <contour>
      <point x="1123" y="-423" type="curve" smooth="yes"/>
      <point x="1237" y="-423"/>
      <point x="1289" y="-402"/>
      <point x="1359" y="-335" type="curve"/>
      <point x="1275" y="-375"/>
      <point x="1210" y="-386"/>
      <point x="1146" y="-385" type="curve" smooth="yes"/>
      <point x="1051" y="-384"/>
      <point x="953" y="-286"/>
      <point x="953" y="-196" type="curve" smooth="yes"/>
      <point x="953" y="-23" type="line"/>
      <point x="673" y="-23" type="line"/>
      <point x="673" y="-132" type="line" smooth="yes"/>
      <point x="673" y="-230"/>
      <point x="762" y="-349"/>
      <point x="861" y="-385" type="curve" smooth="yes"/>
      <point x="954" y="-419"/>
      <point x="1042" y="-423"/>
    </contour>
    <component base="O"/>
  </outline>
</glyph>
<glyph name="S" format="2">
  <advance width="1261"/>
  <unicode hex="0053"/>
  <note>
S
</note>
  <anchor x="631" y="0" name="bottom"/>
  <anchor x="631" y="1440" name="top"/>
  <outline>
    <contour>
      <point x="591" y="-44" type="curve" smooth="yes"/>
      <point x="936" y="-44"/>
      <point x="1193" y="73"/>
      <point x="1193" y="445" type="curve" smooth="yes"/>
      <point x="1193" y="691"/>
      <point x="1089" y="820"/>
      <point x="665" y="921" type="curve" smooth="yes"/>
      <point x="604" y="935"/>
      <point x="361" y="992"/>
      <point x="361" y="1135" type="curve" smooth="yes"/>
      <point x="361" y="1297"/>
      <point x="459" y="1443"/>
      <point x="623" y="1443" type="curve" smooth="yes"/>
      <point x="764" y="1443"/>
      <point x="947" y="1365"/>
      <point x="992" y="1232" type="curve"/>
      <point x="1115" y="1249" type="line"/>
      <point x="1082" y="1367"/>
      <point x="902" y="1479"/>
      <point x="631" y="1479" type="curve" smooth="yes"/>
      <point x="322" y="1479"/>
      <point x="105" y="1307"/>
      <point x="107" y="1056" type="curve" smooth="yes"/>
      <point x="108" y="846"/>
      <point x="251" y="727"/>
      <point x="566" y="640" type="curve" smooth="yes"/>
      <point x="805" y="574"/>
      <point x="942" y="507"/>
      <point x="942" y="337" type="curve" smooth="yes"/>
      <point x="942" y="125"/>
      <point x="810" y="-6"/>
      <point x="610" y="-6" type="curve" smooth="yes"/>
      <point x="354" y="-6"/>
      <point x="218" y="119"/>
      <point x="185" y="281" type="curve"/>
      <point x="61" y="255" type="line"/>
      <point x="94" y="65"/>
      <point x="258" y="-44"/>
    </contour>
  </outline>
</glyph>
<glyph name="T" format="2">
  <advance width="1358"/>
  <unicode hex="0054"/>
  <note>
T
</note>
  <anchor x="679" y="0" name="bottom"/>
  <anchor x="679" y="715" name="center"/>
  <anchor x="679" y="1440" name="top"/>
  <outline>
    <contour>
      <point x="541" y="0" type="line"/>
      <point x="821" y="0" type="line"/>
      <point x="821" y="1439" type="line"/>
      <point x="556" y="1419" type="line"/>
      <point x="1333" y="1419" type="line"/>
      <point x="1333" y="1445" type="line"/>
      <point x="25" y="1445" type="line"/>
      <point x="25" y="1419" type="line"/>
      <point x="806" y="1419" type="line"/>
      <point x="541" y="1439" type="line"/>
    </contour>
  </outline>
</glyph>
<glyph name="V" format="2">
  <advance width="1492"/>
  <unicode hex="0056"/>
  <note>
V
</note>
  <anchor x="746" y="0" name="bottom"/>
  <anchor x="746" y="1440" name="top"/>
  <outline>
    <contour>
      <point x="774" y="-57" type="line"/>
      <point x="1459" y="1445" type="line"/>
      <point x="1378" y="1445" type="line"/>
      <point x="831" y="271" type="line"/>
      <point x="906" y="330" type="line"/>
      <point x="337" y="1445" type="line"/>
      <point x="32" y="1445" type="line"/>
    </contour>
  </outline>
</glyph>
<glyph name="W" format="2">
  <advance width="1992"/>
  <unicode hex="0057"/>
  <note>
W
</note>
  <anchor x="996" y="0" name="bottom"/>
  <anchor x="996" y="1445" name="top"/>
  <outline>
    <contour>
      <point x="1331" y="-57" type="line"/>
      <point x="1957" y="1445" type="line"/>
      <point x="1884" y="1445" type="line"/>
      <point x="1383" y="271" type="line"/>
      <point x="1451" y="330" type="line"/>
      <point x="931" y="1445" type="line"/>
      <point x="652" y="1445" type="line"/>
    </contour>
    <contour>
      <point x="713" y="-57" type="line"/>
      <point x="1084" y="833" type="line"/>
      <point x="1034" y="903" type="line"/>
      <point x="765" y="271" type="line"/>
      <point x="833" y="330" type="line"/>
      <point x="313" y="1445" type="line"/>
      <point x="34" y="1445" type="line"/>
    </contour>
    <contour>
      <point x="1124" y="833" type="line"/>
      <point x="1379" y="1445" type="line"/>
      <point x="1305" y="1445" type="line"/>
      <point x="1074" y="903" type="line"/>
    </contour>
  </outline>
</glyph>
<glyph name="X" format="2">
  <advance width="1334"/>
  <unicode hex="0058"/>
  <note>
X
</note>
  <anchor x="669" y="0" name="bottom"/>
  <anchor x="669" y="1440" name="top"/>
  <outline>
    <contour>
      <point x="965" y="2" type="line"/>
      <point x="1302" y="0" type="line"/>
      <point x="353" y="1444" type="line"/>
      <point x="41" y="1444" type="line"/>
    </contour>
    <contour>
      <point x="85" y="0" type="line"/>
      <point x="184" y="0" type="line"/>
      <point x="662" y="698" type="line"/>
      <point x="604" y="772" type="line"/>
    </contour>
    <contour>
      <point x="692" y="698" type="line"/>
      <point x="1204" y="1444" type="line"/>
      <point x="1094" y="1445" type="line"/>
      <point x="634" y="772" type="line"/>
    </contour>
  </outline>
</glyph>
<glyph name="Y" format="2">
  <advance width="1320"/>
  <unicode hex="0059"/>
  <note>
Y
</note>
  <anchor x="660" y="0" name="bottom"/>
  <anchor x="660" y="1440" name="top"/>
  <anchor x="12" y="1440" name="topleft"/>
  <outline>
    <contour>
      <point x="526" y="0" type="line"/>
      <point x="806" y="0" type="line"/>
      <point x="806" y="544" type="line"/>
      <point x="1290" y="1445" type="line"/>
      <point x="1175" y="1445" type="line"/>
      <point x="700" y="558" type="line"/>
      <point x="807" y="626" type="line"/>
      <point x="356" y="1445" type="line"/>
      <point x="30" y="1445" type="line"/>
      <point x="526" y="541" type="line"/>
    </contour>
  </outline>
</glyph>
<glyph name="Z" format="2">
  <advance width="1314"/>
  <unicode hex="005A"/>
  <note>
Z
</note>
  <anchor x="657" y="0" name="bottom"/>
  <anchor x="657" y="715" name="center"/>
  <anchor x="657" y="1440" name="top"/>
  <outline>
    <contour>
      <point x="36" y="-15" type="line"/>
      <point x="1273" y="-15" type="line"/>
      <point x="1274" y="11" type="line"/>
      <point x="83" y="11" type="line"/>
      <point x="295" y="-2" type="line"/>
      <point x="1236" y="1445" type="line"/>
      <point x="106" y="1445" type="line"/>
      <point x="105" y="1419" type="line"/>
      <point x="1201" y="1419" type="line"/>
      <point x="981" y="1425" type="line"/>
    </contour>
  </outline>
</glyph>
<glyph name="bracketleft" format="2">
  <advance width="654"/>
  <unicode hex="005B"/>
  <note>
bracketleft
</note>
  <outline>
    <contour>
      <point x="166" y="-417" type="line"/>
      <point x="612" y="-417" type="line"/>
      <point x="612" y="-317" type="line"/>
      <point x="366" y="-317" type="line"/>
      <point x="366" y="1377" type="line"/>
      <point x="612" y="1377" type="line"/>
      <point x="612" y="1477" type="line"/>
      <point x="166" y="1477" type="line"/>
    </contour>
  </outline>
</glyph>
<glyph name="bracketright" format="2">
  <advance width="654"/>
  <unicode hex="005D"/>
  <note>
bracketright
</note>
  <outline>
    <contour>
      <point x="42" y="-417" type="line"/>
      <point x="488" y="-417" type="line"/>
      <point x="488" y="1477" type="line"/>
      <point x="42" y="1477" type="line"/>
      <point x="42" y="1377" type="line"/>
      <point x="288" y="1377" type="line"/>
      <point x="288" y="-317" type="line"/>
      <point x="42" y="-317" type="line"/>
    </contour>
  </outline>
</glyph>
<glyph name="a" format="2">
  <advance width="1306"/>
  <unicode hex="0061"/>
  <note>
a
</note>
  <anchor x="606" y="0" name="bottom"/>
  <anchor x="1088" y="0" name="ogonek"/>
  <anchor x="616" y="949" name="top"/>
  <outline>
    <contour>
      <point x="564" y="-35" type="curve" smooth="yes"/>
      <point x="764" y="-35"/>
      <point x="916" y="40"/>
      <point x="916" y="399" type="curve"/>
      <point x="897" y="244" type="line"/>
      <point x="897" y="0" type="line"/>
      <point x="1182" y="0" type="line"/>
      <point x="1182" y="929" type="line"/>
      <point x="897" y="929" type="line"/>
      <point x="897" y="770" type="line"/>
      <point x="935" y="498" type="line"/>
      <point x="937" y="815"/>
      <point x="821" y="970"/>
      <point x="582" y="970" type="curve" smooth="yes"/>
      <point x="245" y="970"/>
      <point x="55" y="789"/>
      <point x="49" y="462" type="curve" smooth="yes"/>
      <point x="43" y="138"/>
      <point x="259" y="-35"/>
    </contour>
    <contour>
      <point x="616" y="-3" type="curve" smooth="yes"/>
      <point x="431" y="-3"/>
      <point x="325" y="203"/>
      <point x="329" y="463" type="curve" smooth="yes"/>
      <point x="333" y="747"/>
      <point x="437" y="938"/>
      <point x="612" y="938" type="curve" smooth="yes"/>
      <point x="811" y="938"/>
      <point x="909" y="781"/>
      <point x="905" y="462" type="curve" smooth="yes"/>
      <point x="901" y="154"/>
      <point x="807" y="-3"/>
    </contour>
  </outline>
</glyph>
<glyph name="b" format="2">
  <advance width="1247"/>
  <unicode hex="0062"/>
  <note>
b
</note>
  <anchor x="649" y="0" name="bottom"/>
  <anchor x="649" y="1524" name="top"/>
  <outline>
    <contour>
      <point x="735" y="-36" type="curve" smooth="yes"/>
      <point x="1026" y="-36"/>
      <point x="1198" y="161"/>
      <point x="1198" y="460" type="curve" smooth="yes"/>
      <point x="1198" y="777"/>
      <point x="1002" y="960"/>
      <point x="721" y="960" type="curve" smooth="yes"/>
      <point x="499" y="960"/>
      <point x="427" y="845"/>
      <point x="382" y="649" type="curve"/>
      <point x="470" y="594" type="line"/>
      <point x="470" y="1529" type="line"/>
      <point x="138" y="1529" type="line"/>
      <point x="138" y="0" type="line"/>
      <point x="466" y="0" type="line"/>
      <point x="466" y="310" type="line"/>
      <point x="368" y="266" type="line"/>
      <point x="417" y="72"/>
      <point x="520" y="-36"/>
    </contour>
    <contour>
      <point x="684" y="36" type="curve" smooth="yes"/>
      <point x="567" y="36"/>
      <point x="456" y="216"/>
      <point x="456" y="447" type="curve" smooth="yes"/>
      <point x="456" y="684"/>
      <point x="569" y="888"/>
      <point x="689" y="888" type="curve" smooth="yes"/>
      <point x="793" y="888"/>
      <point x="862" y="733"/>
      <point x="862" y="465" type="curve" smooth="yes"/>
      <point x="862" y="197"/>
      <point x="795" y="36"/>
    </contour>
  </outline>
</glyph>
<glyph name="c" format="2">
  <advance width="1013"/>
  <unicode hex="0063"/>
  <note>
c
</note>
  <anchor x="505" y="0" name="bottom"/>
  <anchor x="575" y="959" name="top"/>
  <outline>
    <contour>
      <point x="597" y="-36" type="curve" smooth="yes"/>
      <point x="707" y="-34"/>
      <point x="808" y="-14"/>
      <point x="961" y="112" type="curve"/>
      <point x="961" y="227" type="line"/>
      <point x="866" y="72"/>
      <point x="717" y="-2"/>
      <point x="607" y="-4" type="curve" smooth="yes"/>
      <point x="447" y="-7"/>
      <point x="357" y="136"/>
      <point x="357" y="457" type="curve" smooth="yes"/>
      <point x="357" y="750"/>
      <point x="431" y="934"/>
      <point x="587" y="937" type="curve" smooth="yes"/>
      <point x="697" y="939"/>
      <point x="861" y="852"/>
      <point x="961" y="719" type="curve"/>
      <point x="961" y="844" type="line"/>
      <point x="809" y="956"/>
      <point x="700" y="971"/>
      <point x="597" y="969" type="curve" smooth="yes"/>
      <point x="254" y="963"/>
      <point x="49" y="769"/>
      <point x="49" y="451" type="curve" smooth="yes"/>
      <point x="49" y="137"/>
      <point x="248" y="-42"/>
    </contour>
  </outline>
</glyph>
<glyph name="d" format="2">
  <advance width="1247"/>
  <unicode hex="0064"/>
  <note>
d
</note>
  <anchor x="549" y="0" name="bottom"/>
  <anchor x="942" y="1280" name="center"/>
  <anchor x="599" y="1524" name="top"/>
  <anchor x="1268" y="1519" name="topright"/>
  <outline>
    <contour>
      <point x="512" y="-36" type="curve" smooth="yes"/>
      <point x="727" y="-36"/>
      <point x="830" y="72"/>
      <point x="879" y="266" type="curve"/>
      <point x="781" y="310" type="line"/>
      <point x="781" y="0" type="line"/>
      <point x="1109" y="0" type="line"/>
      <point x="1109" y="1529" type="line"/>
      <point x="777" y="1529" type="line"/>
      <point x="777" y="594" type="line"/>
      <point x="865" y="649" type="line"/>
      <point x="820" y="845"/>
      <point x="748" y="960"/>
      <point x="526" y="960" type="curve" smooth="yes"/>
      <point x="245" y="960"/>
      <point x="49" y="779"/>
      <point x="49" y="460" type="curve" smooth="yes"/>
      <point x="49" y="163"/>
      <point x="221" y="-36"/>
    </contour>
    <contour>
      <point x="563" y="36" type="curve" smooth="yes"/>
      <point x="453" y="36"/>
      <point x="385" y="195"/>
      <point x="385" y="465" type="curve" smooth="yes"/>
      <point x="385" y="731"/>
      <point x="453" y="888"/>
      <point x="558" y="888" type="curve" smooth="yes"/>
      <point x="677" y="888"/>
      <point x="791" y="684"/>
      <point x="791" y="447" type="curve" smooth="yes"/>
      <point x="791" y="216"/>
      <point x="681" y="36"/>
    </contour>
  </outline>
</glyph>
<glyph name="e" format="2">
  <advance width="1181"/>
  <unicode hex="0065"/>
  <note>
e
</note>
  <anchor x="623" y="-10" name="bottom"/>
  <anchor x="782" y="0" name="ogonek"/>
  <anchor x="603" y="949" name="top"/>
  <outline>
    <contour>
      <point x="599" y="-36" type="curve" smooth="yes"/>
      <point x="875" y="-33"/>
      <point x="1024" y="73"/>
      <point x="1102" y="261" type="curve"/>
      <point x="1010" y="261" type="line"/>
      <point x="924" y="77"/>
      <point x="763" y="-2"/>
      <point x="609" y="-4" type="curve" smooth="yes"/>
      <point x="443" y="-6"/>
      <point x="349" y="152"/>
      <point x="349" y="457" type="curve" smooth="yes"/>
      <point x="349" y="773"/>
      <point x="456" y="934"/>
      <point x="609" y="937" type="curve" smooth="yes"/>
      <point x="771" y="940"/>
      <point x="861" y="765"/>
      <point x="861" y="481" type="curve"/>
      <point x="1136" y="481" type="line"/>
      <point x="1166" y="797"/>
      <point x="940" y="975"/>
      <point x="599" y="969" type="curve" smooth="yes"/>
      <point x="245" y="963"/>
      <point x="51" y="764"/>
      <point x="51" y="451" type="curve" smooth="yes"/>
      <point x="51" y="119"/>
      <point x="231" y="-41"/>
    </contour>
    <contour>
      <point x="351" y="480" type="line"/>
      <point x="1001" y="481" type="line"/>
      <point x="1001" y="511" type="line"/>
      <point x="329" y="511" type="line"/>
    </contour>
  </outline>
</glyph>
<glyph name="f" format="2">
  <advance width="691"/>
  <unicode hex="0066"/>
  <note>
f
</note>
  <anchor x="349" y="0" name="bottom"/>
  <anchor x="349" y="1524" name="top"/>
  <outline>
    <contour>
      <point x="177" y="0" type="line"/>
      <point x="459" y="0" type="line"/>
      <point x="459" y="942" type="line" smooth="yes"/>
      <point x="459" y="1185"/>
      <point x="362" y="1526"/>
      <point x="479" y="1550" type="curve" smooth="yes"/>
      <point x="545" y="1563"/>
      <point x="622" y="1460"/>
      <point x="622" y="1369" type="curve" smooth="yes"/>
      <point x="622" y="1354"/>
      <point x="620" y="1314"/>
      <point x="613" y="1274" type="curve"/>
      <point x="766" y="1314" type="line"/>
      <point x="771" y="1340"/>
      <point x="772" y="1374"/>
      <point x="772" y="1386" type="curve" smooth="yes"/>
      <point x="772" y="1521"/>
      <point x="648" y="1579"/>
      <point x="481" y="1579" type="curve" smooth="yes"/>
      <point x="251" y="1579"/>
      <point x="177" y="1468"/>
      <point x="177" y="1042" type="curve" smooth="yes"/>
    </contour>
    <contour>
      <point x="3" y="899" type="line"/>
      <point x="695" y="899" type="line"/>
      <point x="695" y="929" type="line"/>
      <point x="3" y="929" type="line"/>
    </contour>
  </outline>
</glyph>
<glyph name="g" format="2">
  <advance width="1247"/>
  <unicode hex="0067"/>
  <note>
g
</note>
  <anchor x="615" y="-526" name="bottom"/>
  <anchor x="575" y="949" name="top"/>
  <outline>
    <contour>
      <point x="551" y="-571" type="curve" smooth="yes"/>
      <point x="1014" y="-571"/>
      <point x="1110" y="-337"/>
      <point x="1110" y="86" type="curve" smooth="yes"/>
      <point x="1110" y="929" type="line"/>
      <point x="828" y="929" type="line"/>
      <point x="828" y="665" type="line"/>
      <point x="927" y="675" type="line"/>
      <point x="876" y="852"/>
      <point x="741" y="955"/>
      <point x="537" y="955" type="curve" smooth="yes"/>
      <point x="251" y="955"/>
      <point x="50" y="753"/>
      <point x="50" y="445" type="curve" smooth="yes"/>
      <point x="50" y="137"/>
      <point x="252" y="-61"/>
      <point x="543" y="-61" type="curve" smooth="yes"/>
      <point x="747" y="-61"/>
      <point x="878" y="37"/>
      <point x="930" y="209" type="curve"/>
      <point x="832" y="263" type="line"/>
      <point x="832" y="20" type="line" smooth="yes"/>
      <point x="832" y="-291"/>
      <point x="776" y="-539"/>
      <point x="526" y="-539" type="curve" smooth="yes"/>
      <point x="317" y="-539"/>
      <point x="277" y="-366"/>
      <point x="269" y="-199" type="curve"/>
      <point x="48" y="-199" type="line"/>
      <point x="89" y="-435"/>
      <point x="198" y="-571"/>
    </contour>
    <contour>
      <point x="574" y="-29" type="curve" smooth="yes"/>
      <point x="464" y="-29"/>
      <point x="346" y="181"/>
      <point x="346" y="450" type="curve" smooth="yes"/>
      <point x="346" y="717"/>
      <point x="462" y="923"/>
      <point x="569" y="923" type="curve" smooth="yes"/>
      <point x="686" y="923"/>
      <point x="792" y="680"/>
      <point x="792" y="442" type="curve" smooth="yes"/>
      <point x="792" y="212"/>
      <point x="692" y="-29"/>
    </contour>
  </outline>
</glyph>
<glyph name="h" format="2">
  <advance width="1252"/>
  <unicode hex="0068"/>
  <note>
h
</note>
  <anchor x="670" y="0" name="bottom"/>
  <anchor x="287" y="1261" name="center"/>
  <anchor x="670" y="1514" name="top"/>
  <outline>
    <contour>
      <point x="138" y="0" type="line"/>
      <point x="420" y="0" type="line"/>
      <point x="420" y="652" type="line" smooth="yes"/>
      <point x="420" y="848"/>
      <point x="617" y="919"/>
      <point x="705" y="919" type="curve" smooth="yes"/>
      <point x="842" y="919"/>
      <point x="874" y="749"/>
      <point x="874" y="546" type="curve" smooth="yes"/>
      <point x="874" y="0" type="line"/>
      <point x="1156" y="0" type="line"/>
      <point x="1156" y="608" type="line" smooth="yes"/>
      <point x="1156" y="808"/>
      <point x="977" y="955"/>
      <point x="735" y="955" type="curve" smooth="yes"/>
      <point x="533" y="955"/>
      <point x="384" y="852"/>
      <point x="397" y="581" type="curve"/>
      <point x="417" y="500" type="line"/>
      <point x="420" y="1529" type="line"/>
      <point x="138" y="1529" type="line"/>
    </contour>
  </outline>
</glyph>
<glyph name="k" format="2">
  <advance width="1107"/>
  <unicode hex="006B"/>
  <note>
k
</note>
  <guideline x="833" y="680" angle="49.4556"/>
  <anchor x="583" y="0" name="bottom"/>
  <anchor x="583" y="1524" name="top"/>
  <outline>
    <contour>
      <point x="138" y="0" type="line"/>
      <point x="420" y="0" type="line"/>
      <point x="420" y="1529" type="line"/>
      <point x="138" y="1529" type="line"/>
    </contour>
    <contour>
      <point x="877" y="0" type="line"/>
      <point x="1105" y="0" type="line"/>
      <point x="652" y="620" type="line"/>
      <point x="515" y="494" type="line"/>
    </contour>
    <contour>
      <point x="302" y="228" type="line"/>
      <point x="964" y="929" type="line"/>
      <point x="918" y="929" type="line"/>
      <point x="384" y="363" type="line"/>
    </contour>
  </outline>
</glyph>
<glyph name="l" format="2">
  <advance width="608"/>
  <unicode hex="006C"/>
  <note>
l
</note>
  <anchor x="254" y="0" name="bottom"/>
  <anchor x="304" y="762" name="center"/>
  <anchor x="727" y="783" name="dot"/>
  <anchor x="454" y="1524" name="top"/>
  <anchor x="589" y="1504" name="topright"/>
  <outline>
    <contour>
      <point x="138" y="0" type="line"/>
      <point x="470" y="0" type="line"/>
      <point x="470" y="1529" type="line"/>
      <point x="138" y="1529" type="line"/>
    </contour>
  </outline>
</glyph>
<glyph name="m" format="2">
  <advance width="1942"/>
  <unicode hex="006D"/>
  <note>
m
</note>
  <guideline x="454" y="741" angle="0"/>
  <anchor x="975" y="0" name="bottom"/>
  <anchor x="975" y="939" name="top"/>
  <outline>
    <contour>
      <point x="124" y="0" type="line"/>
      <point x="408" y="0" type="line"/>
      <point x="408" y="642" type="line" smooth="yes"/>
      <point x="408" y="826"/>
      <point x="588" y="919"/>
      <point x="685" y="919" type="curve" smooth="yes"/>
      <point x="817" y="919"/>
      <point x="844" y="749"/>
      <point x="844" y="546" type="curve" smooth="yes"/>
      <point x="844" y="0" type="line"/>
      <point x="1128" y="0" type="line"/>
      <point x="1128" y="642" type="line" smooth="yes"/>
      <point x="1128" y="826"/>
      <point x="1302" y="919"/>
      <point x="1399" y="919" type="curve" smooth="yes"/>
      <point x="1531" y="919"/>
      <point x="1563" y="749"/>
      <point x="1563" y="546" type="curve" smooth="yes"/>
      <point x="1563" y="0" type="line"/>
      <point x="1847" y="0" type="line"/>
      <point x="1847" y="608" type="line" smooth="yes"/>
      <point x="1847" y="808"/>
      <point x="1648" y="955"/>
      <point x="1428" y="955" type="curve" smooth="yes"/>
      <point x="1246" y="955"/>
      <point x="1090" y="817"/>
      <point x="1099" y="575" type="curve"/>
      <point x="1125" y="602" type="line"/>
      <point x="1128" y="805"/>
      <point x="936" y="955"/>
      <point x="714" y="955" type="curve" smooth="yes"/>
      <point x="543" y="955"/>
      <point x="397" y="836"/>
      <point x="385" y="622" type="curve"/>
      <point x="406" y="586" type="line"/>
      <point x="408" y="929" type="line"/>
      <point x="124" y="929" type="line"/>
    </contour>
  </outline>
</glyph>
<glyph name="n" format="2">
  <advance width="1238"/>
  <unicode hex="006E"/>
  <note>
n
</note>
  <anchor x="623" y="0" name="bottom"/>
  <anchor x="623" y="939" name="top"/>
  <outline>
    <contour>
      <point x="124" y="0" type="line"/>
      <point x="406" y="0" type="line"/>
      <point x="406" y="642" type="line" smooth="yes"/>
      <point x="406" y="826"/>
      <point x="591" y="919"/>
      <point x="691" y="919" type="curve" smooth="yes"/>
      <point x="827" y="919"/>
      <point x="860" y="749"/>
      <point x="860" y="546" type="curve" smooth="yes"/>
      <point x="860" y="0" type="line"/>
      <point x="1142" y="0" type="line"/>
      <point x="1142" y="608" type="line" smooth="yes"/>
      <point x="1142" y="808"/>
      <point x="947" y="955"/>
      <point x="721" y="955" type="curve" smooth="yes"/>
      <point x="524" y="955"/>
      <point x="359" y="804"/>
      <point x="383" y="541" type="curve"/>
      <point x="403" y="470" type="line"/>
      <point x="406" y="929" type="line"/>
      <point x="124" y="929" type="line"/>
    </contour>
  </outline>
</glyph>
<glyph name="o" format="2">
  <advance width="1203"/>
  <unicode hex="006F"/>
  <note>
o
</note>
  <anchor x="602" y="0" name="bottom"/>
  <anchor x="602" y="465" name="center"/>
  <anchor x="768" y="0" name="ogonek"/>
  <anchor x="602" y="949" name="top"/>
  <anchor x="1160" y="929" name="topright"/>
  <outline>
    <contour>
      <point x="597" y="-36" type="curve" smooth="yes"/>
      <point x="941" y="-30"/>
      <point x="1154" y="164"/>
      <point x="1154" y="471" type="curve" smooth="yes"/>
      <point x="1154" y="797"/>
      <point x="955" y="975"/>
      <point x="597" y="969" type="curve" smooth="yes"/>
      <point x="260" y="963"/>
      <point x="49" y="764"/>
      <point x="49" y="451" type="curve" smooth="yes"/>
      <point x="49" y="132"/>
      <point x="245" y="-42"/>
    </contour>
    <contour>
      <point x="607" y="-4" type="curve" smooth="yes"/>
      <point x="447" y="-7"/>
      <point x="357" y="159"/>
      <point x="357" y="457" type="curve" smooth="yes"/>
      <point x="357" y="773"/>
      <point x="434" y="934"/>
      <point x="587" y="937" type="curve" smooth="yes"/>
      <point x="749" y="940"/>
      <point x="849" y="759"/>
      <point x="849" y="465" type="curve" smooth="yes"/>
      <point x="849" y="156"/>
      <point x="768" y="-1"/>
    </contour>
  </outline>
</glyph>
<glyph name="p" format="2">
  <advance width="1250"/>
  <unicode hex="0070"/>
  <note>
p
</note>
  <anchor x="652" y="0" name="bottom"/>
  <anchor x="652" y="919" name="top"/>
  <outline>
    <contour>
      <point x="141" y="-526" type="line"/>
      <point x="473" y="-526" type="line"/>
      <point x="473" y="325" type="line"/>
      <point x="385" y="270" type="line"/>
      <point x="430" y="74"/>
      <point x="505" y="-41"/>
      <point x="724" y="-41" type="curve" smooth="yes"/>
      <point x="1008" y="-41"/>
      <point x="1201" y="151"/>
      <point x="1201" y="469" type="curve" smooth="yes"/>
      <point x="1201" y="767"/>
      <point x="1032" y="970"/>
      <point x="738" y="970" type="curve" smooth="yes"/>
      <point x="526" y="970"/>
      <point x="420" y="867"/>
      <point x="371" y="673" type="curve"/>
      <point x="469" y="609" type="line"/>
      <point x="469" y="929" type="line"/>
      <point x="141" y="929" type="line"/>
    </contour>
    <contour>
      <point x="692" y="31" type="curve" smooth="yes"/>
      <point x="574" y="31"/>
      <point x="459" y="235"/>
      <point x="459" y="472" type="curve" smooth="yes"/>
      <point x="459" y="703"/>
      <point x="568" y="898"/>
      <point x="687" y="898" type="curve" smooth="yes"/>
      <point x="796" y="898"/>
      <point x="865" y="734"/>
      <point x="865" y="464" type="curve" smooth="yes"/>
      <point x="865" y="198"/>
      <point x="798" y="31"/>
    </contour>
  </outline>
</glyph>
<glyph name="q" format="2">
  <advance width="1233"/>
  <unicode hex="0071"/>
  <note>
q
</note>
  <anchor x="577" y="0" name="bottom"/>
  <anchor x="577" y="919" name="top"/>
  <outline>
    <contour>
      <point x="777" y="-526" type="line"/>
      <point x="1109" y="-526" type="line"/>
      <point x="1109" y="929" type="line"/>
      <point x="781" y="929" type="line"/>
      <point x="781" y="609" type="line"/>
      <point x="879" y="673" type="line"/>
      <point x="830" y="867"/>
      <point x="724" y="975"/>
      <point x="512" y="975" type="curve" smooth="yes"/>
      <point x="218" y="975"/>
      <point x="49" y="768"/>
      <point x="49" y="469" type="curve" smooth="yes"/>
      <point x="49" y="152"/>
      <point x="242" y="-41"/>
      <point x="526" y="-41" type="curve" smooth="yes"/>
      <point x="745" y="-41"/>
      <point x="820" y="74"/>
      <point x="865" y="270" type="curve"/>
      <point x="777" y="325" type="line"/>
    </contour>
    <contour>
      <point x="558" y="31" type="curve" smooth="yes"/>
      <point x="452" y="31"/>
      <point x="385" y="198"/>
      <point x="385" y="464" type="curve" smooth="yes"/>
      <point x="385" y="734"/>
      <point x="454" y="903"/>
      <point x="563" y="903" type="curve" smooth="yes"/>
      <point x="682" y="903"/>
      <point x="791" y="703"/>
      <point x="791" y="472" type="curve" smooth="yes"/>
      <point x="791" y="235"/>
      <point x="676" y="31"/>
    </contour>
  </outline>
</glyph>
<glyph name="r" format="2">
  <advance width="951"/>
  <unicode hex="0072"/>
  <note>
r
</note>
  <anchor x="229" y="0" name="bottom"/>
  <anchor x="619" y="939" name="top"/>
  <outline>
    <contour>
      <point x="124" y="0" type="line"/>
      <point x="406" y="0" type="line"/>
      <point x="406" y="622" type="line" smooth="yes"/>
      <point x="406" y="731"/>
      <point x="510" y="919"/>
      <point x="629" y="919" type="curve" smooth="yes"/>
      <point x="764" y="919"/>
      <point x="775" y="836"/>
      <point x="775" y="781" type="curve" smooth="yes"/>
      <point x="775" y="706"/>
      <point x="755" y="680"/>
      <point x="737" y="662" type="curve"/>
      <point x="905" y="622" type="line"/>
      <point x="928" y="686"/>
      <point x="933" y="722"/>
      <point x="933" y="752" type="curve" smooth="yes"/>
      <point x="933" y="879"/>
      <point x="840" y="955"/>
      <point x="689" y="955" type="curve" smooth="yes"/>
      <point x="549" y="955"/>
      <point x="446" y="869"/>
      <point x="402" y="690" type="curve"/>
      <point x="406" y="648" type="line"/>
      <point x="406" y="929" type="line"/>
      <point x="124" y="929" type="line"/>
    </contour>
  </outline>
</glyph>
<glyph name="s" format="2">
  <advance width="949"/>
  <unicode hex="0073"/>
  <note>
s
</note>
  <anchor x="444" y="-10" name="bottom"/>
  <anchor x="474" y="939" name="top"/>
  <outline>
    <contour>
      <point x="467" y="-36" type="curve" smooth="yes"/>
      <point x="699" y="-36"/>
      <point x="913" y="49"/>
      <point x="910" y="269" type="curve" smooth="yes"/>
      <point x="907" y="500"/>
      <point x="594" y="580"/>
      <point x="492" y="609" type="curve" smooth="yes"/>
      <point x="328" y="656"/>
      <point x="307" y="699"/>
      <point x="307" y="762" type="curve" smooth="yes"/>
      <point x="307" y="864"/>
      <point x="371" y="935"/>
      <point x="489" y="935" type="curve" smooth="yes"/>
      <point x="605" y="935"/>
      <point x="755" y="866"/>
      <point x="795" y="800" type="curve"/>
      <point x="881" y="820" type="line"/>
      <point x="790" y="930"/>
      <point x="631" y="969"/>
      <point x="490" y="969" type="curve" smooth="yes"/>
      <point x="254" y="969"/>
      <point x="82" y="864"/>
      <point x="84" y="688" type="curve" smooth="yes"/>
      <point x="86" y="511"/>
      <point x="274" y="444"/>
      <point x="403" y="408" type="curve" smooth="yes"/>
      <point x="639" y="342"/>
      <point x="641" y="241"/>
      <point x="641" y="207" type="curve" smooth="yes"/>
      <point x="641" y="-8"/>
      <point x="505" y="-1"/>
      <point x="454" y="-1" type="curve" smooth="yes"/>
      <point x="263" y="-1"/>
      <point x="151" y="95"/>
      <point x="128" y="214" type="curve"/>
      <point x="26" y="196" type="line"/>
      <point x="62" y="89"/>
      <point x="186" y="-36"/>
    </contour>
  </outline>
</glyph>
<glyph name="v" format="2">
  <advance width="933"/>
  <unicode hex="0076"/>
  <note>
v
</note>
  <anchor x="467" y="0" name="bottom"/>
  <anchor x="467" y="929" name="top"/>
  <outline>
    <contour>
      <point x="462" y="-36" type="line"/>
      <point x="463" y="-36" type="line"/>
      <point x="926" y="929" type="line"/>
      <point x="861" y="929" type="line"/>
      <point x="515" y="210" type="line"/>
      <point x="581" y="259" type="line"/>
      <point x="264" y="929" type="line"/>
      <point x="7" y="929" type="line"/>
    </contour>
  </outline>
</glyph>
<glyph name="x" format="2">
  <advance width="906"/>
  <unicode hex="0078"/>
  <note>
x
</note>
  <anchor x="456" y="0" name="bottom"/>
  <anchor x="456" y="929" name="top"/>
  <outline>
    <contour>
      <point x="609" y="0" type="line"/>
      <point x="892" y="0" type="line"/>
      <point x="314" y="929" type="line"/>
      <point x="30" y="929" type="line"/>
    </contour>
    <contour>
      <point x="36" y="0" type="line"/>
      <point x="104" y="0" type="line"/>
      <point x="390" y="380" type="line"/>
      <point x="415" y="503" type="line"/>
    </contour>
    <contour>
      <point x="474" y="433" type="line"/>
      <point x="833" y="929" type="line"/>
      <point x="767" y="929" type="line"/>
      <point x="492" y="551" type="line"/>
    </contour>
  </outline>
</glyph>
<glyph name="braceleft" format="2">
  <advance width="643"/>
  <unicode hex="007B"/>
  <note>
braceleft
</note>
  <outline>
    <contour>
      <point x="601" y="-414" type="curve"/>
      <point x="601" y="-309" type="line"/>
      <point x="434" y="-346"/>
      <point x="355" y="-253"/>
      <point x="355" y="8" type="curve" smooth="yes"/>
      <point x="355" y="330" type="line" smooth="yes"/>
      <point x="355" y="384"/>
      <point x="320" y="423"/>
      <point x="245" y="478" type="curve"/>
      <point x="323" y="538"/>
      <point x="355" y="573"/>
      <point x="355" y="626" type="curve" smooth="yes"/>
      <point x="355" y="1052" type="line" smooth="yes"/>
      <point x="355" y="1313"/>
      <point x="434" y="1406"/>
      <point x="601" y="1369" type="curve"/>
      <point x="601" y="1474" type="line"/>
      <point x="330" y="1501"/>
      <point x="155" y="1361"/>
      <point x="155" y="1122" type="curve" smooth="yes"/>
      <point x="155" y="626" type="line" smooth="yes"/>
      <point x="155" y="563"/>
      <point x="127" y="520"/>
      <point x="64" y="478" type="curve"/>
      <point x="127" y="436"/>
      <point x="155" y="393"/>
      <point x="155" y="330" type="curve" smooth="yes"/>
      <point x="155" y="-62" type="line" smooth="yes"/>
      <point x="155" y="-302"/>
      <point x="329" y="-440"/>
    </contour>
  </outline>
</glyph>
<glyph name="braceright" format="2">
  <advance width="643"/>
  <unicode hex="007D"/>
  <note>
braceright
</note>
  <outline>
    <contour>
      <point x="42" y="-414" type="line"/>
      <point x="314" y="-440"/>
      <point x="488" y="-302"/>
      <point x="488" y="-62" type="curve" smooth="yes"/>
      <point x="488" y="330" type="line" smooth="yes"/>
      <point x="488" y="393"/>
      <point x="516" y="436"/>
      <point x="579" y="478" type="curve"/>
      <point x="516" y="520"/>
      <point x="488" y="563"/>
      <point x="488" y="626" type="curve" smooth="yes"/>
      <point x="488" y="1122" type="line" smooth="yes"/>
      <point x="488" y="1361"/>
      <point x="313" y="1501"/>
      <point x="42" y="1474" type="curve"/>
      <point x="42" y="1369" type="line"/>
      <point x="209" y="1406"/>
      <point x="288" y="1313"/>
      <point x="288" y="1052" type="curve" smooth="yes"/>
      <point x="288" y="626" type="line" smooth="yes"/>
      <point x="288" y="573"/>
      <point x="320" y="538"/>
      <point x="398" y="478" type="curve"/>
      <point x="323" y="423"/>
      <point x="288" y="384"/>
      <point x="288" y="330" type="curve" smooth="yes"/>
      <point x="288" y="8" type="line" smooth="yes"/>
      <point x="288" y="-253"/>
      <point x="209" y="-346"/>
      <point x="42" y="-309" type="curve"/>
    </contour>
  </outline>
</glyph>
<glyph name="asciitilde" format="2">
  <advance width="1365"/>
  <unicode hex="007E"/>
  <note>
asciitilde
</note>
  <outline>
    <contour>
      <point x="896" y="549" type="curve" smooth="yes"/>
      <point x="1032" y="549"/>
      <point x="1190" y="634"/>
      <point x="1263" y="683" type="curve"/>
      <point x="1178" y="818" type="line"/>
      <point x="1018" y="726"/>
      <point x="937" y="715"/>
      <point x="896" y="715" type="curve" smooth="yes"/>
      <point x="827" y="715"/>
      <point x="774" y="752"/>
      <point x="716" y="783" type="curve" smooth="yes"/>
      <point x="609" y="840"/>
      <point x="520" y="859"/>
      <point x="470" y="859" type="curve" smooth="yes"/>
      <point x="366" y="859"/>
      <point x="201" y="783"/>
      <point x="102" y="704" type="curve"/>
      <point x="188" y="569" type="line"/>
      <point x="348" y="670"/>
      <point x="423" y="693"/>
      <point x="469" y="693" type="curve" smooth="yes"/>
      <point x="533" y="693"/>
      <point x="633" y="639"/>
      <point x="668" y="620" type="curve" smooth="yes"/>
      <point x="805" y="546"/>
      <point x="881" y="549"/>
    </contour>
  </outline>
</glyph>
<glyph name="Euro" format="2">
  <advance width="1581"/>
  <unicode hex="0080"/>
  <note>
Euro
</note>
  <outline>
    <contour>
      <point x="952" y="-53" type="curve" smooth="yes"/>
      <point x="1258" y="-53"/>
      <point x="1435" y="133"/>
      <point x="1476" y="291" type="curve"/>
      <point x="1227" y="291" type="line"/>
      <point x="1146" y="133"/>
      <point x="1028" y="13"/>
      <point x="962" y="13" type="curve" smooth="yes"/>
      <point x="753" y="13"/>
      <point x="555" y="346"/>
      <point x="555" y="704" type="curve" smooth="yes"/>
      <point x="555" y="1072"/>
      <point x="748" y="1393"/>
      <point x="966" y="1393" type="curve" smooth="yes"/>
      <point x="1024" y="1393"/>
      <point x="1143" y="1266"/>
      <point x="1227" y="1103" type="curve"/>
      <point x="1476" y="1103" type="line"/>
      <point x="1435" y="1260"/>
      <point x="1259" y="1459"/>
      <point x="952" y="1459" type="curve" smooth="yes"/>
      <point x="541" y="1459"/>
      <point x="247" y="1143"/>
      <point x="247" y="704" type="curve"/>
      <point x="267" y="241"/>
      <point x="539" y="-53"/>
    </contour>
    <contour>
      <point x="92" y="517" type="line"/>
      <point x="1091" y="517" type="line"/>
      <point x="1106" y="583" type="line"/>
      <point x="107" y="583" type="line"/>
    </contour>
    <contour>
      <point x="140" y="817" type="line"/>
      <point x="1139" y="817" type="line"/>
      <point x="1154" y="883" type="line"/>
      <point x="155" y="883" type="line"/>
    </contour>
  </outline>
</glyph>
<glyph name="copyright" format="2">
  <advance width="1777"/>
  <unicode hex="00A9"/>
  <note>
copyright
</note>
  <outline>
    <contour>
      <point x="887" y="-25" type="curve" smooth="yes"/>
      <point x="1104" y="-25"/>
      <point x="1317" y="69"/>
      <point x="1444" y="193" type="curve" smooth="yes"/>
      <point x="1600" y="345"/>
      <point x="1670" y="509"/>
      <point x="1670" y="708" type="curve" smooth="yes"/>
      <point x="1670" y="909"/>
      <point x="1598" y="1074"/>
      <point x="1445" y="1227" type="curve" smooth="yes"/>
      <point x="1318" y="1353"/>
      <point x="1105" y="1441"/>
      <point x="887" y="1441" type="curve" smooth="yes"/>
      <point x="692" y="1441"/>
      <point x="477" y="1369"/>
      <point x="339" y="1228" type="curve" smooth="yes"/>
      <point x="184" y="1070"/>
      <point x="106" y="906"/>
      <point x="106" y="708" type="curve" smooth="yes"/>
      <point x="106" y="511"/>
      <point x="181" y="346"/>
      <point x="337" y="191" type="curve" smooth="yes"/>
      <point x="471" y="58"/>
      <point x="680" y="-25"/>
    </contour>
    <contour>
      <point x="885" y="253" type="curve" smooth="yes"/>
      <point x="1114" y="253"/>
      <point x="1292" y="384"/>
      <point x="1297" y="563" type="curve"/>
      <point x="1073" y="563" type="line"/>
      <point x="1050" y="417"/>
      <point x="980" y="325"/>
      <point x="891" y="325" type="curve" smooth="yes"/>
      <point x="764" y="325"/>
      <point x="684" y="472"/>
      <point x="684" y="706" type="curve" smooth="yes"/>
      <point x="684" y="945"/>
      <point x="764" y="1095"/>
      <point x="891" y="1095" type="curve" smooth="yes"/>
      <point x="973" y="1095"/>
      <point x="1040" y="1010"/>
      <point x="1064" y="875" type="curve"/>
      <point x="1287" y="875" type="line"/>
      <point x="1283" y="1039"/>
      <point x="1110" y="1165"/>
      <point x="895" y="1165" type="curve" smooth="yes"/>
      <point x="621" y="1165"/>
      <point x="444" y="985"/>
      <point x="444" y="704" type="curve" smooth="yes"/>
      <point x="444" y="427"/>
      <point x="615" y="253"/>
    </contour>
    <contour>
      <point x="887" y="31" type="curve" smooth="yes"/>
      <point x="717" y="31"/>
      <point x="582" y="97"/>
      <point x="449" y="232" type="curve" smooth="yes"/>
      <point x="346" y="336"/>
      <point x="265" y="520"/>
      <point x="265" y="708" type="curve" smooth="yes"/>
      <point x="265" y="888"/>
      <point x="338" y="1076"/>
      <point x="451" y="1191" type="curve" smooth="yes"/>
      <point x="584" y="1326"/>
      <point x="711" y="1387"/>
      <point x="887" y="1387" type="curve" smooth="yes"/>
      <point x="1059" y="1387"/>
      <point x="1194" y="1326"/>
      <point x="1331" y="1189" type="curve" smooth="yes"/>
      <point x="1439" y="1081"/>
      <point x="1513" y="888"/>
      <point x="1513" y="708" type="curve" smooth="yes"/>
      <point x="1513" y="519"/>
      <point x="1438" y="335"/>
      <point x="1334" y="234" type="curve" smooth="yes"/>
      <point x="1198" y="101"/>
      <point x="1055" y="31"/>
    </contour>
  </outline>
</glyph>
<glyph name="logicalnot" format="2">
  <advance width="1044"/>
  <unicode hex="00AC"/>
  <note>
logicalnot
</note>
  <outline>
    <contour>
      <point x="1167" y="333" type="line"/>
      <point x="1409" y="333" type="line"/>
      <point x="1409" y="853" type="line"/>
      <point x="109" y="853" type="line"/>
      <point x="109" y="709" type="line"/>
      <point x="1167" y="709" type="line"/>
    </contour>
  </outline>
</glyph>
<glyph name="degree" format="2">
  <advance width="878"/>
  <unicode hex="00B0"/>
  <note>
degree
</note>
  <outline>
    <contour>
      <point x="437" y="853" type="curve" smooth="yes"/>
      <point x="615" y="853"/>
      <point x="761" y="983"/>
      <point x="761" y="1144" type="curve" smooth="yes"/>
      <point x="761" y="1305"/>
      <point x="615" y="1435"/>
      <point x="439" y="1435" type="curve" smooth="yes"/>
      <point x="261" y="1435"/>
      <point x="117" y="1307"/>
      <point x="117" y="1144" type="curve" smooth="yes"/>
      <point x="117" y="981"/>
      <point x="259" y="853"/>
    </contour>
    <contour>
      <point x="439" y="885" type="curve" smooth="yes"/>
      <point x="334" y="885"/>
      <point x="251" y="998"/>
      <point x="251" y="1144" type="curve" smooth="yes"/>
      <point x="251" y="1288"/>
      <point x="336" y="1401"/>
      <point x="439" y="1401" type="curve" smooth="yes"/>
      <point x="542" y="1401"/>
      <point x="625" y="1289"/>
      <point x="625" y="1144" type="curve" smooth="yes"/>
      <point x="625" y="998"/>
      <point x="542" y="885"/>
    </contour>
  </outline>
</glyph>
<glyph name="ordmasculine" format="2">
  <advance width="995"/>
  <unicode hex="00BA"/>
  <note>
ordmasculine
</note>
  <outline>
    <contour>
      <point x="489" y="825" type="curve" smooth="yes"/>
      <point x="707" y="825"/>
      <point x="858" y="953"/>
      <point x="858" y="1146" type="curve" smooth="yes"/>
      <point x="858" y="1339"/>
      <point x="708" y="1471"/>
      <point x="489" y="1471" type="curve" smooth="yes"/>
      <point x="270" y="1471"/>
      <point x="120" y="1339"/>
      <point x="120" y="1146" type="curve" smooth="yes"/>
      <point x="120" y="953"/>
      <point x="271" y="825"/>
    </contour>
    <contour>
      <point x="487" y="857" type="curve" smooth="yes"/>
      <point x="403" y="857"/>
      <point x="348" y="1026"/>
      <point x="348" y="1146" type="curve" smooth="yes"/>
      <point x="348" y="1267"/>
      <point x="404" y="1439"/>
      <point x="487" y="1439" type="curve" smooth="yes"/>
      <point x="571" y="1439"/>
      <point x="628" y="1267"/>
      <point x="628" y="1146" type="curve" smooth="yes"/>
      <point x="628" y="1027"/>
      <point x="572" y="857"/>
    </contour>
    <contour>
      <point x="98" y="717" type="line"/>
      <point x="912" y="717" type="line"/>
      <point x="912" y="757" type="line"/>
      <point x="98" y="757" type="line"/>
    </contour>
  </outline>
</glyph>
<glyph name="Thorn" format="2">
  <advance width="1207"/>
  <unicode hex="00DE"/>
  <note>
Thorn
</note>
  <anchor x="604" y="0" name="bottom"/>
  <anchor x="604" y="1445" name="top"/>
  <outline>
    <contour>
      <point x="244" y="333" type="line"/>
      <point x="589" y="334" type="line" smooth="yes"/>
      <point x="763" y="335"/>
      <point x="906" y="360"/>
      <point x="1002" y="438" type="curve" smooth="yes"/>
      <point x="1084" y="505"/>
      <point x="1126" y="612"/>
      <point x="1123" y="766" type="curve" smooth="yes"/>
      <point x="1120" y="898"/>
      <point x="1082" y="988"/>
      <point x="1006" y="1047" type="curve" smooth="yes"/>
      <point x="916" y="1117"/>
      <point x="773" y="1145"/>
      <point x="575" y="1145" type="curve" smooth="yes"/>
      <point x="211" y="1145" type="line"/>
      <point x="206" y="1121" type="line"/>
      <point x="528" y="1119" type="line" smooth="yes"/>
      <point x="717" y="1118"/>
      <point x="850" y="982"/>
      <point x="855" y="745" type="curve" smooth="yes"/>
      <point x="860" y="509"/>
      <point x="736" y="359"/>
      <point x="540" y="360" type="curve" smooth="yes"/>
      <point x="243" y="361" type="line"/>
    </contour>
    <contour>
      <point x="167" y="0" type="line"/>
      <point x="447" y="0" type="line"/>
      <point x="447" y="1444" type="line"/>
      <point x="167" y="1444" type="line"/>
    </contour>
  </outline>
</glyph>
<glyph name="ae" format="2">
  <advance width="2172"/>
  <unicode hex="00E6"/>
  <note>
ae
</note>
  <guideline x="813" y="770" angle="0"/>
  <anchor x="1086" y="0" name="bottom"/>
  <anchor x="1086" y="929" name="top"/>
  <outline>
    <contour>
      <point x="564" y="-35" type="curve" smooth="yes"/>
      <point x="764" y="-35"/>
      <point x="916" y="40"/>
      <point x="916" y="399" type="curve"/>
      <point x="897" y="244" type="line"/>
      <point x="897" y="0" type="line"/>
      <point x="1182" y="0" type="line"/>
      <point x="1182" y="929" type="line"/>
      <point x="897" y="929" type="line"/>
      <point x="897" y="770" type="line"/>
      <point x="935" y="498" type="line"/>
      <point x="937" y="815"/>
      <point x="821" y="970"/>
      <point x="582" y="970" type="curve" smooth="yes"/>
      <point x="245" y="970"/>
      <point x="55" y="789"/>
      <point x="49" y="462" type="curve" smooth="yes"/>
      <point x="43" y="138"/>
      <point x="259" y="-35"/>
    </contour>
    <contour>
      <point x="616" y="-3" type="curve" smooth="yes"/>
      <point x="431" y="-3"/>
      <point x="325" y="203"/>
      <point x="329" y="463" type="curve" smooth="yes"/>
      <point x="333" y="747"/>
      <point x="437" y="938"/>
      <point x="612" y="938" type="curve" smooth="yes"/>
      <point x="811" y="938"/>
      <point x="909" y="781"/>
      <point x="905" y="462" type="curve" smooth="yes"/>
      <point x="901" y="154"/>
      <point x="807" y="-3"/>
    </contour>
    <contour>
      <point x="1616" y="-36" type="curve" smooth="yes"/>
      <point x="1878" y="-32"/>
      <point x="2020" y="73"/>
      <point x="2095" y="261" type="curve"/>
      <point x="2007" y="261" type="line"/>
      <point x="1925" y="77"/>
      <point x="1772" y="-2"/>
      <point x="1625" y="-4" type="curve" smooth="yes"/>
      <point x="1467" y="-6"/>
      <point x="1378" y="152"/>
      <point x="1378" y="457" type="curve" smooth="yes"/>
      <point x="1378" y="773"/>
      <point x="1479" y="934"/>
      <point x="1625" y="937" type="curve" smooth="yes"/>
      <point x="1779" y="940"/>
      <point x="1865" y="765"/>
      <point x="1865" y="481" type="curve"/>
      <point x="2127" y="481" type="line"/>
      <point x="2156" y="797"/>
      <point x="1940" y="975"/>
      <point x="1616" y="969" type="curve" smooth="yes"/>
      <point x="1278" y="963"/>
      <point x="1094" y="764"/>
      <point x="1094" y="451" type="curve" smooth="yes"/>
      <point x="1094" y="119"/>
      <point x="1265" y="-41"/>
    </contour>
    <contour>
      <point x="1290" y="480" type="line"/>
      <point x="1909" y="481" type="line"/>
      <point x="1909" y="511" type="line"/>
      <point x="1269" y="511" type="line"/>
    </contour>
  </outline>
</glyph>
<glyph name="eth" format="2">
  <advance width="1222"/>
  <unicode hex="00F0"/>
  <note>
eth
</note>
  <outline>
    <contour>
      <point x="605" y="-61" type="curve" smooth="yes"/>
      <point x="783" y="-61"/>
      <point x="932" y="11"/>
      <point x="1030" y="130" type="curve" smooth="yes"/>
      <point x="1109" y="228"/>
      <point x="1155" y="356"/>
      <point x="1155" y="501" type="curve" smooth="yes"/>
      <point x="1155" y="654"/>
      <point x="1106" y="857"/>
      <point x="1037" y="993" type="curve" smooth="yes"/>
      <point x="895" y="1273"/>
      <point x="566" y="1470"/>
      <point x="172" y="1535" type="curve"/>
      <point x="125" y="1466" type="line"/>
      <point x="472" y="1414"/>
      <point x="732" y="1162"/>
      <point x="837" y="716" type="curve"/>
      <point x="972" y="814" type="line"/>
      <point x="874" y="901"/>
      <point x="750" y="955"/>
      <point x="605" y="955" type="curve" smooth="yes"/>
      <point x="461" y="955"/>
      <point x="298" y="933"/>
      <point x="185" y="814" type="curve" smooth="yes"/>
      <point x="103" y="727"/>
      <point x="53" y="588"/>
      <point x="53" y="443" type="curve" smooth="yes"/>
      <point x="53" y="315"/>
      <point x="103" y="164"/>
      <point x="194" y="69" type="curve" smooth="yes"/>
      <point x="313" y="-54"/>
      <point x="482" y="-61"/>
    </contour>
    <contour>
      <point x="604" y="11" type="curve" smooth="yes"/>
      <point x="502" y="11"/>
      <point x="389" y="230"/>
      <point x="389" y="444" type="curve" smooth="yes"/>
      <point x="389" y="658"/>
      <point x="503" y="883"/>
      <point x="604" y="883" type="curve" smooth="yes"/>
      <point x="705" y="883"/>
      <point x="819" y="658"/>
      <point x="819" y="444" type="curve" smooth="yes"/>
      <point x="819" y="230"/>
      <point x="706" y="11"/>
    </contour>
    <contour>
      <point x="164" y="1081" type="line"/>
      <point x="339" y="1081" type="line"/>
      <point x="842" y="1562" type="line"/>
      <point x="667" y="1562" type="line"/>
    </contour>
  </outline>
</glyph>
<glyph name="idotless" format="2">
  <advance width="575"/>
  <unicode hex="0131"/>
  <note>
dotlessi
</note>
  <anchor x="292" y="0" name="bottom"/>
  <anchor x="329" y="0" name="ogonek"/>
  <anchor x="292" y="929" name="top"/>
  <outline>
    <contour>
      <point x="126" y="0" type="line"/>
      <point x="449" y="0" type="line"/>
      <point x="449" y="929" type="line"/>
      <point x="126" y="929" type="line"/>
    </contour>
  </outline>
</glyph>
<glyph name="kgreenlandic" format="2">
  <advance width="1093"/>
  <unicode hex="0138"/>
  <anchor x="559" y="0" name="bottom"/>
  <anchor x="559" y="929" name="top"/>
  <outline>
    <contour>
      <point x="124" y="0" type="line"/>
      <point x="406" y="0" type="line"/>
      <point x="406" y="929" type="line"/>
      <point x="124" y="929" type="line"/>
    </contour>
    <contour>
      <point x="863" y="0" type="line"/>
      <point x="1091" y="0" type="line"/>
      <point x="638" y="620" type="line"/>
      <point x="501" y="494" type="line"/>
    </contour>
    <contour>
      <point x="288" y="228" type="line"/>
      <point x="952" y="929" type="line"/>
      <point x="907" y="929" type="line"/>
      <point x="370" y="363" type="line"/>
    </contour>
  </outline>
</glyph>
<glyph name="lslash" format="2">
  <advance width="762"/>
  <unicode hex="0142"/>
  <outline>
    <contour>
      <point x="218" y="0" type="line"/>
      <point x="550" y="0" type="line"/>
      <point x="550" y="1529" type="line"/>
      <point x="218" y="1529" type="line"/>
    </contour>
    <contour>
      <point x="43" y="453" type="line"/>
      <point x="766" y="888" type="line"/>
      <point x="719" y="967" type="line"/>
      <point x="-4" y="532" type="line"/>
    </contour>
  </outline>
</glyph>
<glyph name="Eng" format="2">
  <advance width="1531"/>
  <unicode hex="014A"/>
  <outline>
    <contour>
      <point x="1115" y="-461" type="curve" smooth="yes"/>
      <point x="1292" y="-461"/>
      <point x="1374" y="-361"/>
      <point x="1374" y="-162" type="curve" smooth="yes"/>
      <point x="1374" y="1445" type="line"/>
      <point x="1312" y="1445" type="line"/>
      <point x="1312" y="222" type="line"/>
      <point x="1351" y="336" type="line"/>
      <point x="200" y="1445" type="line"/>
      <point x="170" y="1445" type="line"/>
      <point x="170" y="0" type="line"/>
      <point x="232" y="0" type="line"/>
      <point x="232" y="1217" type="line"/>
      <point x="214" y="1083" type="line"/>
      <point x="1227" y="108" type="line" smooth="yes"/>
      <point x="1313" y="26"/>
      <point x="1312" y="-19"/>
      <point x="1312" y="-197" type="curve" smooth="yes"/>
      <point x="1312" y="-370"/>
      <point x="1221" y="-401"/>
      <point x="1116" y="-401" type="curve" smooth="yes"/>
      <point x="1011" y="-401"/>
      <point x="883" y="-370"/>
      <point x="815" y="-242" type="curve"/>
      <point x="815" y="-350" type="line"/>
      <point x="846" y="-398"/>
      <point x="975" y="-461"/>
    </contour>
  </outline>
</glyph>
<glyph name="eng" format="2">
  <advance width="1238"/>
  <unicode hex="014B"/>
  <outline>
    <contour>
      <point x="838" y="-490" type="curve" smooth="yes"/>
      <point x="1068" y="-490"/>
      <point x="1142" y="-379"/>
      <point x="1142" y="47" type="curve" smooth="yes"/>
      <point x="1142" y="608" type="line" smooth="yes"/>
      <point x="1142" y="808"/>
      <point x="947" y="955"/>
      <point x="721" y="955" type="curve" smooth="yes"/>
      <point x="545" y="955"/>
      <point x="395" y="836"/>
      <point x="383" y="622" type="curve"/>
      <point x="404" y="586" type="line"/>
      <point x="406" y="929" type="line"/>
      <point x="124" y="929" type="line"/>
      <point x="124" y="0" type="line"/>
      <point x="406" y="0" type="line"/>
      <point x="406" y="642" type="line" smooth="yes"/>
      <point x="406" y="826"/>
      <point x="591" y="919"/>
      <point x="691" y="919" type="curve" smooth="yes"/>
      <point x="827" y="919"/>
      <point x="860" y="749"/>
      <point x="860" y="546" type="curve" smooth="yes"/>
      <point x="860" y="147" type="line" smooth="yes"/>
      <point x="860" y="-96"/>
      <point x="957" y="-436"/>
      <point x="840" y="-461" type="curve" smooth="yes"/>
      <point x="774" y="-475"/>
      <point x="687" y="-371"/>
      <point x="687" y="-280" type="curve" smooth="yes"/>
      <point x="687" y="-265"/>
      <point x="689" y="-225"/>
      <point x="696" y="-185" type="curve"/>
      <point x="543" y="-225" type="line"/>
      <point x="538" y="-251"/>
      <point x="537" y="-285"/>
      <point x="537" y="-297" type="curve" smooth="yes"/>
      <point x="537" y="-432"/>
      <point x="671" y="-490"/>
    </contour>
  </outline>
</glyph>
<glyph name="OE" format="2">
  <advance width="2193"/>
  <unicode hex="0152"/>
  <note>
OE
</note>
  <anchor x="1127" y="0" name="bottom"/>
  <anchor x="1127" y="1440" name="top"/>
  <outline>
    <contour>
      <point x="794" y="-41" type="curve" smooth="yes"/>
      <point x="1205" y="-26"/>
      <point x="1513" y="291"/>
      <point x="1513" y="717" type="curve" smooth="yes"/>
      <point x="1513" y="1149"/>
      <point x="1195" y="1475"/>
      <point x="794" y="1475" type="curve" smooth="yes"/>
      <point x="389" y="1475"/>
      <point x="74" y="1140"/>
      <point x="74" y="712" type="curve" smooth="yes"/>
      <point x="74" y="287"/>
      <point x="383" y="-56"/>
    </contour>
    <contour>
      <point x="794" y="19" type="curve" smooth="yes"/>
      <point x="572" y="19"/>
      <point x="410" y="303"/>
      <point x="410" y="712" type="curve" smooth="yes"/>
      <point x="410" y="1121"/>
      <point x="572" y="1415"/>
      <point x="794" y="1415" type="curve" smooth="yes"/>
      <point x="1016" y="1415"/>
      <point x="1181" y="1120"/>
      <point x="1181" y="712" type="curve" smooth="yes"/>
      <point x="1181" y="305"/>
      <point x="1017" y="19"/>
    </contour>
    <contour>
      <point x="1186" y="0" type="line"/>
      <point x="2126" y="0" type="line"/>
      <point x="2126" y="66" type="line"/>
      <point x="1125" y="66" type="line"/>
      <point x="1522" y="13" type="line"/>
      <point x="1522" y="756" type="line"/>
      <point x="1254" y="700" type="line"/>
      <point x="2126" y="700" type="line"/>
      <point x="2126" y="766" type="line"/>
      <point x="1225" y="766" type="line"/>
      <point x="1522" y="713" type="line"/>
      <point x="1522" y="1420" type="line"/>
      <point x="1218" y="1379" type="line"/>
      <point x="2126" y="1379" type="line"/>
      <point x="2126" y="1445" type="line"/>
      <point x="1186" y="1445" type="line"/>
    </contour>
  </outline>
</glyph>
<glyph name="florin" format="2">
  <advance width="1402"/>
  <unicode hex="0192"/>
  <note>
florin
</note>
  <guideline x="880" y="516" angle="82.9367"/>
  <outline>
    <contour>
      <point x="548" y="459" type="line"/>
      <point x="830" y="459" type="line"/>
      <point x="931" y="879" type="line"/>
      <point x="825" y="1348"/>
      <point x="935" y="1545"/>
      <point x="1115" y="1545" type="curve" smooth="yes"/>
      <point x="1193" y="1545"/>
      <point x="1228" y="1458"/>
      <point x="1215" y="1420" type="curve"/>
      <point x="1327" y="1456" type="line"/>
      <point x="1319" y="1533"/>
      <point x="1244" y="1579"/>
      <point x="1115" y="1579" type="curve"/>
      <point x="900" y="1579"/>
      <point x="795" y="1484"/>
      <point x="719" y="1168" type="curve"/>
    </contour>
    <contour>
      <point x="284" y="-490" type="curve"/>
      <point x="499" y="-490"/>
      <point x="604" y="-395"/>
      <point x="700" y="-79" type="curve"/>
      <point x="871" y="630" type="line"/>
      <point x="589" y="630" type="line"/>
      <point x="446" y="30" type="line"/>
      <point x="446" y="-121"/>
      <point x="440" y="-456"/>
      <point x="284" y="-456" type="curve" smooth="yes"/>
      <point x="206" y="-456"/>
      <point x="171" y="-369"/>
      <point x="184" y="-331" type="curve"/>
      <point x="72" y="-367" type="line"/>
      <point x="80" y="-444"/>
      <point x="155" y="-490"/>
    </contour>
    <contour>
      <point x="401" y="859" type="line"/>
      <point x="1173" y="859" type="line"/>
      <point x="1189" y="929" type="line"/>
      <point x="417" y="929" type="line"/>
    </contour>
  </outline>
</glyph>
<glyph name="jdotless" format="2">
  <advance width="570"/>
  <unicode hex="0237"/>
  <anchor x="280" y="-526" name="bottom"/>
  <anchor x="280" y="929" name="top"/>
  <outline>
    <contour>
      <point x="67" y="-555" type="curve" smooth="yes"/>
      <point x="268" y="-555"/>
      <point x="431" y="-494"/>
      <point x="431" y="-68" type="curve" smooth="yes"/>
      <point x="431" y="929" type="line"/>
      <point x="139" y="929" type="line"/>
      <point x="139" y="32" type="line" smooth="yes"/>
      <point x="139" y="-211"/>
      <point x="180" y="-504"/>
      <point x="69" y="-526" type="curve" smooth="yes"/>
      <point x="-3" y="-540"/>
      <point x="-83" y="-432"/>
      <point x="-83" y="-345" type="curve" smooth="yes"/>
      <point x="-83" y="-326"/>
      <point x="-79" y="-285"/>
      <point x="-65" y="-256" type="curve"/>
      <point x="-218" y="-290" type="line"/>
      <point x="-223" y="-316"/>
      <point x="-224" y="-350"/>
      <point x="-224" y="-362" type="curve" smooth="yes"/>
      <point x="-224" y="-497"/>
      <point x="-129" y="-555"/>
    </contour>
  </outline>
</glyph>
<glyph name="primemod" format="2">
  <advance width="255"/>
  <unicode hex="02B9"/>
  <outline>
    <contour>
      <point x="255" y="1351" type="curve"/>
      <point x="59" y="1351" type="line"/>
      <point x="14" y="1250"/>
      <point x="-3" y="1061"/>
      <point x="1" y="982" type="curve"/>
      <point x="133" y="982" type="line"/>
      <point x="183" y="1114"/>
      <point x="233" y="1263"/>
    </contour>
  </outline>
</glyph>
<glyph name="tildecomb" format="2">
  <unicode hex="0303"/>
  <note>
tilde
</note>
  <anchor x="372" y="919" name="_top"/>
  <anchor x="382" y="1403" name="top"/>
  <outline>
    <contour>
      <point x="508" y="1107" type="curve" smooth="yes"/>
      <point x="620" y="1107"/>
      <point x="692" y="1182"/>
      <point x="724" y="1338" type="curve"/>
      <point x="710" y="1369" type="line"/>
      <point x="629" y="1259"/>
      <point x="566" y="1247"/>
      <point x="534" y="1247" type="curve" smooth="yes"/>
      <point x="420" y="1247"/>
      <point x="423" y="1403"/>
      <point x="258" y="1403" type="curve" smooth="yes"/>
      <point x="142" y="1403"/>
      <point x="73" y="1327"/>
      <point x="40" y="1170" type="curve"/>
      <point x="54" y="1139" type="line"/>
      <point x="139" y="1249"/>
      <point x="196" y="1261"/>
      <point x="230" y="1261" type="curve" smooth="yes"/>
      <point x="352" y="1261"/>
      <point x="347" y="1107"/>
    </contour>
  </outline>
</glyph>
<glyph name="macroncomb" format="2">
  <unicode hex="0304"/>
  <note>
macron
</note>
  <anchor x="442" y="919" name="_top"/>
  <anchor x="442" y="1271" name="top"/>
  <outline>
    <contour>
      <point x="67" y="1131" type="line"/>
      <point x="819" y="1131" type="line"/>
      <point x="818" y="1271" type="line"/>
      <point x="66" y="1271" type="line"/>
    </contour>
  </outline>
</glyph>
<glyph name="brevecomb" format="2">
  <unicode hex="0306"/>
  <note>
breve
</note>
  <anchor x="401" y="929" name="_top"/>
  <anchor x="401" y="1445" name="top"/>
  <outline>
    <contour>
      <point x="401" y="1087" type="curve" smooth="yes"/>
      <point x="604" y="1087"/>
      <point x="722" y="1196"/>
      <point x="760" y="1445" type="curve"/>
      <point x="677" y="1445" type="line"/>
      <point x="612" y="1287"/>
      <point x="513" y="1227"/>
      <point x="401" y="1227" type="curve" smooth="yes"/>
      <point x="291" y="1227"/>
      <point x="183" y="1282"/>
      <point x="115" y="1445" type="curve"/>
      <point x="41" y="1445" type="line"/>
      <point x="74" y="1203"/>
      <point x="192" y="1087"/>
    </contour>
  </outline>
</glyph>
<glyph name="hookabovecomb" format="2">
  <unicode hex="0309"/>
  <anchor x="225" y="929" name="_top"/>
  <anchor x="225" y="1504" name="top"/>
  <outline>
    <contour>
      <point x="136" y="1129" type="line"/>
      <point x="323" y="1150"/>
      <point x="432" y="1224"/>
      <point x="432" y="1333" type="curve" smooth="yes"/>
      <point x="432" y="1438"/>
      <point x="330" y="1504"/>
      <point x="201" y="1504" type="curve" smooth="yes"/>
      <point x="92" y="1504"/>
      <point x="37" y="1457"/>
      <point x="18" y="1429" type="curve"/>
      <point x="50" y="1404" type="line"/>
      <point x="100" y="1457"/>
      <point x="163" y="1463"/>
      <point x="191" y="1463" type="curve" smooth="yes"/>
      <point x="300" y="1463"/>
      <point x="290" y="1379"/>
      <point x="290" y="1335" type="curve" smooth="yes"/>
      <point x="290" y="1199"/>
      <point x="194" y="1184"/>
      <point x="136" y="1184" type="curve"/>
    </contour>
    <contour>
      <point x="136" y="1050" type="line"/>
      <point x="256" y="1050" type="line"/>
      <point x="256" y="1180" type="line"/>
      <point x="136" y="1150" type="line"/>
    </contour>
  </outline>
</glyph>
<glyph name="horncomb" format="2">
  <unicode hex="031B"/>
  <anchor x="221" y="1279" name="_topright"/>
  <anchor x="307" y="1343" name="topright"/>
  <outline>
    <contour>
      <point x="287" y="1343" type="curve"/>
      <point x="175" y="1343" type="line"/>
      <point x="175" y="1295"/>
      <point x="128" y="1217"/>
      <point x="41" y="1217" type="curve"/>
      <point x="41" y="1154" type="line"/>
      <point x="160" y="1154"/>
      <point x="287" y="1244"/>
    </contour>
  </outline>
</glyph>
<glyph name="ogonekcomb" format="2">
  <unicode hex="0328"/>
  <anchor x="430" y="0" name="_ogonek"/>
  <outline>
    <contour>
      <point x="326" y="-406" type="curve" smooth="yes"/>
      <point x="395" y="-406"/>
      <point x="474" y="-375"/>
      <point x="550" y="-334" type="curve"/>
      <point x="550" y="-306" type="line"/>
      <point x="420" y="-367"/>
      <point x="392" y="-357"/>
      <point x="358" y="-357" type="curve" smooth="yes"/>
      <point x="294" y="-357"/>
      <point x="252" y="-320"/>
      <point x="252" y="-227" type="curve" smooth="yes"/>
      <point x="252" y="-107"/>
      <point x="323" y="-32"/>
      <point x="483" y="0" type="curve"/>
      <point x="400" y="0" type="line" smooth="yes"/>
      <point x="317" y="0"/>
      <point x="114" y="-63"/>
      <point x="114" y="-217" type="curve" smooth="yes"/>
      <point x="114" y="-326"/>
      <point x="216" y="-406"/>
    </contour>
  </outline>
</glyph>
<glyph name="Lje-cy" format="2">
  <advance width="2135"/>
  <unicode hex="0409"/>
  <outline>
    <contour>
      <point x="1116" y="24" type="line"/>
      <point x="1077" y="0" type="line"/>
      <point x="1496" y="0" type="line" smooth="yes"/>
      <point x="1694" y="0"/>
      <point x="1837" y="28"/>
      <point x="1927" y="98" type="curve" smooth="yes"/>
      <point x="2003" y="157"/>
      <point x="2041" y="247"/>
      <point x="2044" y="379" type="curve" smooth="yes"/>
      <point x="2047" y="533"/>
      <point x="2005" y="640"/>
      <point x="1923" y="707" type="curve" smooth="yes"/>
      <point x="1827" y="785"/>
      <point x="1684" y="810"/>
      <point x="1510" y="811" type="curve" smooth="yes"/>
      <point x="1165" y="812" type="line"/>
      <point x="1164" y="784" type="line"/>
      <point x="1461" y="785" type="line" smooth="yes"/>
      <point x="1657" y="786"/>
      <point x="1781" y="636"/>
      <point x="1776" y="400" type="curve" smooth="yes"/>
      <point x="1771" y="163"/>
      <point x="1638" y="27"/>
      <point x="1449" y="26" type="curve" smooth="yes"/>
    </contour>
    <contour>
      <point x="494" y="1445" type="line"/>
      <point x="494" y="1028"/>
      <point x="489" y="875"/>
      <point x="456" y="656" type="curve" smooth="yes"/>
      <point x="409" y="350"/>
      <point x="317" y="176"/>
      <point x="99" y="176" type="curve" smooth="yes"/>
      <point x="25" y="176" type="line"/>
      <point x="25" y="0" type="line"/>
      <point x="145" y="0" type="line" smooth="yes"/>
      <point x="390" y="0"/>
      <point x="454" y="356"/>
      <point x="486" y="611" type="curve" smooth="yes"/>
      <point x="548" y="1105"/>
      <point x="521" y="1453"/>
      <point x="528" y="1423" type="curve"/>
      <point x="506" y="1419" type="line"/>
      <point x="1229" y="1419" type="line"/>
      <point x="1078" y="1430" type="line"/>
      <point x="1078" y="0" type="line"/>
      <point x="1358" y="0" type="line"/>
      <point x="1358" y="1445" type="line"/>
    </contour>
  </outline>
</glyph>
<glyph name="Nje-cy" format="2">
  <advance width="2258"/>
  <unicode hex="040A"/>
  <outline>
    <contour>
      <point x="170" y="0" type="line"/>
      <point x="450" y="0" type="line"/>
      <point x="450" y="766" type="line"/>
      <point x="253" y="714" type="line"/>
      <point x="1397" y="714" type="line"/>
      <point x="1200" y="766" type="line"/>
      <point x="1200" y="0" type="line"/>
      <point x="1480" y="0" type="line"/>
      <point x="1480" y="1445" type="line"/>
      <point x="1200" y="1445" type="line"/>
      <point x="1200" y="688" type="line"/>
      <point x="1397" y="740" type="line"/>
      <point x="253" y="740" type="line"/>
      <point x="450" y="688" type="line"/>
      <point x="450" y="1445" type="line"/>
      <point x="170" y="1445" type="line"/>
    </contour>
    <contour>
      <point x="1239" y="24" type="line"/>
      <point x="1200" y="0" type="line"/>
      <point x="1619" y="0" type="line" smooth="yes"/>
      <point x="1817" y="0"/>
      <point x="1960" y="28"/>
      <point x="2050" y="98" type="curve" smooth="yes"/>
      <point x="2126" y="157"/>
      <point x="2164" y="247"/>
      <point x="2167" y="379" type="curve" smooth="yes"/>
      <point x="2170" y="533"/>
      <point x="2128" y="640"/>
      <point x="2046" y="707" type="curve" smooth="yes"/>
      <point x="1950" y="785"/>
      <point x="1807" y="810"/>
      <point x="1633" y="811" type="curve" smooth="yes"/>
      <point x="1288" y="812" type="line"/>
      <point x="1287" y="784" type="line"/>
      <point x="1584" y="785" type="line" smooth="yes"/>
      <point x="1780" y="786"/>
      <point x="1904" y="636"/>
      <point x="1899" y="400" type="curve" smooth="yes"/>
      <point x="1894" y="163"/>
      <point x="1761" y="27"/>
      <point x="1572" y="26" type="curve" smooth="yes"/>
    </contour>
  </outline>
</glyph>
<glyph name="Tshe-cy" format="2">
  <advance width="1654"/>
  <unicode hex="040B"/>
  <outline>
    <contour>
      <point x="726" y="1445" type="line"/>
      <point x="413" y="1445" type="line"/>
      <point x="413" y="0" type="line"/>
      <point x="723" y="0" type="line"/>
      <point x="723" y="518" type="line" smooth="yes"/>
      <point x="723" y="843"/>
      <point x="948" y="865"/>
      <point x="1019" y="865" type="curve" smooth="yes"/>
      <point x="1201" y="865"/>
      <point x="1257" y="723"/>
      <point x="1257" y="434" type="curve" smooth="yes"/>
      <point x="1257" y="0" type="line"/>
      <point x="1537" y="0" type="line"/>
      <point x="1537" y="527" type="line" smooth="yes"/>
      <point x="1537" y="785"/>
      <point x="1370" y="912"/>
      <point x="1112" y="912" type="curve" smooth="yes"/>
      <point x="892" y="912"/>
      <point x="703" y="820"/>
      <point x="715" y="564" type="curve"/>
      <point x="722" y="295" type="line"/>
    </contour>
    <contour>
      <point x="68" y="1419" type="line"/>
      <point x="1074" y="1419" type="line"/>
      <point x="1074" y="1445" type="line"/>
      <point x="68" y="1445" type="line"/>
    </contour>
  </outline>
</glyph>
<glyph name="Zhe-cy" format="2">
  <advance width="2015"/>
  <unicode hex="0416"/>
  <anchor x="1995" y="0" name="bottomright"/>
  <anchor x="1008" y="1445" name="top"/>
  <outline>
    <contour>
      <point x="1706" y="0" type="line"/>
      <point x="1943" y="0" type="line"/>
      <point x="1357" y="840" type="line"/>
      <point x="1198" y="745" type="line"/>
    </contour>
    <contour>
      <point x="865" y="0" type="line"/>
      <point x="1150" y="0" type="line"/>
      <point x="1150" y="1445" type="line"/>
      <point x="865" y="1445" type="line"/>
    </contour>
    <contour>
      <point x="957" y="740" type="line"/>
      <point x="1408" y="740" type="line"/>
      <point x="1408" y="766" type="line"/>
      <point x="957" y="766" type="line"/>
    </contour>
    <contour>
      <point x="1225" y="755" type="line"/>
      <point x="1359" y="705" type="line"/>
      <point x="1877" y="1445" type="line"/>
      <point x="1707" y="1445" type="line"/>
    </contour>
    <contour>
      <point x="309" y="0" type="line"/>
      <point x="816" y="745" type="line"/>
      <point x="658" y="840" type="line"/>
      <point x="72" y="0" type="line"/>
    </contour>
    <contour>
      <point x="1058" y="740" type="line"/>
      <point x="1058" y="766" type="line"/>
      <point x="607" y="766" type="line"/>
      <point x="607" y="740" type="line"/>
    </contour>
    <contour>
      <point x="789" y="756" type="line"/>
      <point x="308" y="1445" type="line"/>
      <point x="138" y="1445" type="line"/>
      <point x="656" y="705" type="line"/>
    </contour>
  </outline>
</glyph>
<glyph name="Ii-cy" format="2">
  <advance width="1544"/>
  <unicode hex="0418"/>
  <anchor x="772" y="0" name="bottom"/>
  <anchor x="1524" y="0" name="bottomright"/>
  <anchor x="772" y="1445" name="top"/>
  <outline>
    <contour>
      <point x="1374" y="0" type="line"/>
      <point x="1374" y="1445" type="line"/>
      <point x="1344" y="1445" type="line"/>
      <point x="186" y="329" type="line"/>
      <point x="232" y="109" type="line"/>
      <point x="232" y="1445" type="line"/>
      <point x="170" y="1445" type="line"/>
      <point x="170" y="0" type="line"/>
      <point x="206" y="0" type="line"/>
      <point x="1358" y="1110" type="line"/>
      <point x="1312" y="1310" type="line"/>
      <point x="1312" y="0" type="line"/>
    </contour>
  </outline>
</glyph>
<glyph name="Ka-cy" format="2">
  <advance width="1297"/>
  <unicode hex="041A"/>
  <anchor x="1427" y="0" name="bottomright"/>
  <anchor x="649" y="1445" name="top"/>
  <outline>
    <contour>
      <point x="168" y="0" type="line"/>
      <point x="448" y="0" type="line"/>
      <point x="448" y="1430" type="line"/>
      <point x="168" y="1430" type="line"/>
    </contour>
    <contour>
      <point x="491" y="684" type="line"/>
      <point x="1215" y="1430" type="line"/>
      <point x="1077" y="1430" type="line"/>
      <point x="401" y="733" type="line"/>
    </contour>
    <contour>
      <point x="935" y="0" type="line"/>
      <point x="1263" y="0" type="line"/>
      <point x="571" y="769" type="line"/>
      <point x="258" y="752" type="line"/>
    </contour>
  </outline>
</glyph>
<glyph name="El-cy" format="2">
  <advance width="1527"/>
  <unicode hex="041B"/>
  <outline>
    <contour>
      <point x="494" y="1445" type="line"/>
      <point x="494" y="1028"/>
      <point x="489" y="875"/>
      <point x="456" y="656" type="curve" smooth="yes"/>
      <point x="409" y="350"/>
      <point x="317" y="176"/>
      <point x="99" y="176" type="curve" smooth="yes"/>
      <point x="25" y="176" type="line"/>
      <point x="25" y="0" type="line"/>
      <point x="145" y="0" type="line" smooth="yes"/>
      <point x="390" y="0"/>
      <point x="454" y="356"/>
      <point x="486" y="611" type="curve" smooth="yes"/>
      <point x="549" y="1105"/>
      <point x="521" y="1453"/>
      <point x="528" y="1423" type="curve"/>
      <point x="516" y="1419" type="line"/>
      <point x="1229" y="1419" type="line"/>
      <point x="1078" y="1430" type="line"/>
      <point x="1078" y="0" type="line"/>
      <point x="1358" y="0" type="line"/>
      <point x="1358" y="1445" type="line"/>
    </contour>
  </outline>
</glyph>
<glyph name="U-cy" format="2">
  <advance width="1074"/>
  <unicode hex="0423"/>
  <guideline x="962" y="937" angle="65.4755"/>
  <guideline x="948" y="1101" angle="245.0195"/>
  <anchor x="537" y="1445" name="top"/>
  <outline>
    <contour>
      <point x="184" y="0" type="line"/>
      <point x="209" y="0" type="line" smooth="yes"/>
      <point x="410" y="0"/>
      <point x="483" y="46"/>
      <point x="604" y="349" type="curve" smooth="yes"/>
      <point x="1038" y="1437" type="line"/>
      <point x="936" y="1437" type="line"/>
      <point x="500" y="319" type="line" smooth="yes"/>
      <point x="456" y="207"/>
      <point x="398" y="69"/>
      <point x="267" y="69" type="curve" smooth="yes"/>
      <point x="184" y="69" type="line"/>
    </contour>
    <contour>
      <point x="553" y="369" type="line"/>
      <point x="704" y="714" type="line"/>
      <point x="357" y="1437" type="line"/>
      <point x="34" y="1437" type="line"/>
    </contour>
  </outline>
</glyph>
<glyph name="Che-cy" format="2">
  <advance width="1386"/>
  <unicode hex="0427"/>
  <anchor x="1416" y="0" name="bottomright"/>
  <anchor x="693" y="1445" name="top"/>
  <outline>
    <contour>
      <point x="903" y="0" type="line"/>
      <point x="1216" y="0" type="line"/>
      <point x="1216" y="1445" type="line"/>
      <point x="906" y="1445" type="line"/>
      <point x="906" y="927" type="line" smooth="yes"/>
      <point x="906" y="602"/>
      <point x="681" y="580"/>
      <point x="610" y="580" type="curve" smooth="yes"/>
      <point x="428" y="580"/>
      <point x="372" y="722"/>
      <point x="372" y="1011" type="curve" smooth="yes"/>
      <point x="372" y="1445" type="line"/>
      <point x="92" y="1445" type="line"/>
      <point x="92" y="918" type="line" smooth="yes"/>
      <point x="92" y="660"/>
      <point x="259" y="533"/>
      <point x="517" y="533" type="curve" smooth="yes"/>
      <point x="737" y="533"/>
      <point x="926" y="625"/>
      <point x="914" y="881" type="curve"/>
      <point x="907" y="1150" type="line"/>
    </contour>
  </outline>
</glyph>
<glyph name="be-cy" format="2">
  <advance width="1225"/>
  <unicode hex="0431"/>
  <outline>
    <contour>
      <point x="622" y="-36" type="curve" smooth="yes"/>
      <point x="966" y="-31"/>
      <point x="1180" y="154"/>
      <point x="1180" y="447" type="curve" smooth="yes"/>
      <point x="1180" y="757"/>
      <point x="980" y="927"/>
      <point x="622" y="921" type="curve" smooth="yes"/>
      <point x="523" y="919"/>
      <point x="434" y="901"/>
      <point x="359" y="872" type="curve"/>
      <point x="404" y="780" type="line"/>
      <point x="424" y="1007"/>
      <point x="441" y="1258"/>
      <point x="726" y="1299" type="curve" smooth="yes"/>
      <point x="813" y="1312"/>
      <point x="967" y="1304"/>
      <point x="1018" y="1445" type="curve"/>
      <point x="966" y="1465" type="line"/>
      <point x="901" y="1340"/>
      <point x="776" y="1331"/>
      <point x="726" y="1326" type="curve" smooth="yes"/>
      <point x="257" y="1279"/>
      <point x="75" y="926"/>
      <point x="74" y="428" type="curve" smooth="yes"/>
      <point x="74" y="124"/>
      <point x="270" y="-42"/>
    </contour>
    <contour>
      <point x="632" y="-8" type="curve" smooth="yes"/>
      <point x="472" y="-11"/>
      <point x="380" y="149"/>
      <point x="380" y="433" type="curve" smooth="yes"/>
      <point x="380" y="734"/>
      <point x="459" y="887"/>
      <point x="612" y="889" type="curve" smooth="yes"/>
      <point x="774" y="892"/>
      <point x="874" y="721"/>
      <point x="874" y="441" type="curve" smooth="yes"/>
      <point x="874" y="147"/>
      <point x="793" y="-5"/>
    </contour>
  </outline>
</glyph>
<glyph name="ge-cy" format="2">
  <advance width="859"/>
  <unicode hex="0433"/>
  <anchor x="839" y="0" name="bottomright"/>
  <anchor x="252" y="495" name="center"/>
  <anchor x="430" y="929" name="top"/>
  <outline>
    <contour>
      <point x="124" y="929" type="line"/>
      <point x="124" y="0" type="line"/>
      <point x="379" y="0" type="line"/>
      <point x="379" y="907" type="line"/>
      <point x="169" y="898" type="line"/>
      <point x="863" y="896" type="line"/>
      <point x="863" y="929" type="line"/>
    </contour>
  </outline>
</glyph>
<glyph name="zhe-cy" format="2">
  <advance width="1520"/>
  <unicode hex="0436"/>
  <anchor x="1500" y="0" name="bottomright"/>
  <anchor x="760" y="929" name="top"/>
  <outline>
    <contour>
      <point x="1272" y="0" type="line"/>
      <point x="1504" y="0" type="line"/>
      <point x="1120" y="499" type="line"/>
      <point x="905" y="478" type="line"/>
    </contour>
    <contour>
      <point x="619" y="0" type="line"/>
      <point x="901" y="0" type="line"/>
      <point x="901" y="930" type="line"/>
      <point x="619" y="929" type="line"/>
    </contour>
    <contour>
      <point x="749" y="476" type="line"/>
      <point x="1086" y="475" type="line"/>
      <point x="1098" y="485" type="line"/>
      <point x="762" y="485" type="line"/>
    </contour>
    <contour>
      <point x="947" y="472" type="line"/>
      <point x="1070" y="429" type="line"/>
      <point x="1472" y="929" type="line"/>
      <point x="1324" y="929" type="line"/>
    </contour>
    <contour>
      <point x="248" y="0" type="line"/>
      <point x="615" y="478" type="line"/>
      <point x="399" y="499" type="line"/>
      <point x="16" y="0" type="line"/>
    </contour>
    <contour>
      <point x="749" y="476" type="line"/>
      <point x="736" y="485" type="line"/>
      <point x="422" y="485" type="line"/>
      <point x="434" y="475" type="line"/>
    </contour>
    <contour>
      <point x="568" y="478" type="line"/>
      <point x="196" y="929" type="line"/>
      <point x="48" y="929" type="line"/>
      <point x="450" y="429" type="line"/>
    </contour>
  </outline>
</glyph>
<glyph name="ii-cy" format="2">
  <advance width="1073"/>
  <unicode hex="0438"/>
  <anchor x="1053" y="0" name="bottomright"/>
  <anchor x="537" y="929" name="top"/>
  <outline>
    <contour>
      <point x="124" y="0" type="line"/>
      <point x="185" y="0" type="line"/>
      <point x="936" y="693" type="line"/>
      <point x="908" y="787" type="line"/>
      <point x="910" y="0" type="line"/>
      <point x="949" y="0" type="line"/>
      <point x="949" y="929" type="line"/>
      <point x="894" y="929" type="line"/>
      <point x="136" y="233" type="line"/>
      <point x="165" y="71" type="line"/>
      <point x="163" y="929" type="line"/>
      <point x="124" y="929" type="line"/>
    </contour>
  </outline>
</glyph>
<glyph name="el-cy" format="2">
  <advance width="1039"/>
  <unicode hex="043B"/>
  <outline>
    <contour>
      <point x="633" y="0" type="line"/>
      <point x="915" y="0" type="line"/>
      <point x="915" y="929" type="line"/>
      <point x="293" y="929" type="line"/>
      <point x="293" y="903" type="line"/>
      <point x="899" y="903" type="line"/>
      <point x="633" y="914" type="line"/>
    </contour>
    <contour>
      <point x="9" y="0" type="line"/>
      <point x="90" y="0" type="line" smooth="yes"/>
      <point x="224" y="0"/>
      <point x="273" y="189"/>
      <point x="297" y="471" type="curve" smooth="yes"/>
      <point x="312" y="640"/>
      <point x="315" y="813"/>
      <point x="315" y="908" type="curve"/>
      <point x="293" y="908" type="line"/>
      <point x="293" y="818"/>
      <point x="291" y="620"/>
      <point x="276" y="456" type="curve" smooth="yes"/>
      <point x="249" y="158"/>
      <point x="193" y="116"/>
      <point x="59" y="116" type="curve" smooth="yes"/>
      <point x="9" y="116" type="line"/>
    </contour>
  </outline>
</glyph>
<glyph name="em-cy" format="2">
  <advance width="1335"/>
  <unicode hex="043C"/>
  <outline>
    <contour>
      <point x="124" y="0" type="line"/>
      <point x="165" y="0" type="line"/>
      <point x="165" y="863" type="line"/>
      <point x="147" y="823" type="line"/>
      <point x="565" y="39" type="line"/>
      <point x="992" y="885" type="line"/>
      <point x="960" y="892" type="line"/>
      <point x="960" y="0" type="line"/>
      <point x="1211" y="0" type="line"/>
      <point x="1211" y="929" type="line"/>
      <point x="954" y="929" type="line"/>
      <point x="577" y="179" type="line"/>
      <point x="663" y="325" type="line"/>
      <point x="341" y="929" type="line"/>
      <point x="124" y="929" type="line"/>
    </contour>
  </outline>
</glyph>
<glyph name="en-cy" format="2">
  <advance width="1230"/>
  <unicode hex="043D"/>
  <anchor x="1110" y="0" name="bottomright"/>
  <outline>
    <contour>
      <point x="124" y="0" type="line"/>
      <point x="406" y="0" type="line"/>
      <point x="406" y="531" type="line"/>
      <point x="199" y="469" type="line"/>
      <point x="1031" y="469" type="line"/>
      <point x="824" y="531" type="line"/>
      <point x="824" y="0" type="line"/>
      <point x="1106" y="0" type="line"/>
      <point x="1106" y="929" type="line"/>
      <point x="824" y="929" type="line"/>
      <point x="824" y="447" type="line"/>
      <point x="1031" y="499" type="line"/>
      <point x="199" y="499" type="line"/>
      <point x="406" y="447" type="line"/>
      <point x="406" y="929" type="line"/>
      <point x="124" y="929" type="line"/>
    </contour>
  </outline>
</glyph>
<glyph name="te-cy" format="2">
  <advance width="976"/>
  <unicode hex="0442"/>
  <anchor x="956" y="0" name="bottomright"/>
  <outline>
    <contour>
      <point x="347" y="0" type="line"/>
      <point x="629" y="0" type="line"/>
      <point x="629" y="918" type="line"/>
      <point x="478" y="897" type="line"/>
      <point x="980" y="897" type="line"/>
      <point x="980" y="929" type="line"/>
      <point x="-4" y="929" type="line"/>
      <point x="-4" y="897" type="line"/>
      <point x="498" y="897" type="line"/>
      <point x="347" y="918" type="line"/>
    </contour>
  </outline>
</glyph>
<glyph name="ereversed-cy" format="2">
  <advance width="1134"/>
  <unicode hex="044D"/>
  <anchor x="567" y="929" name="top"/>
  <outline>
    <contour>
      <point x="526" y="-42" type="curve" smooth="yes"/>
      <point x="866" y="-42"/>
      <point x="1085" y="147"/>
      <point x="1085" y="466" type="curve" smooth="yes"/>
      <point x="1085" y="798"/>
      <point x="834" y="970"/>
      <point x="533" y="970" type="curve" smooth="yes"/>
      <point x="294" y="970"/>
      <point x="110" y="861"/>
      <point x="30" y="700" type="curve"/>
      <point x="328" y="688" type="line"/>
      <point x="368" y="820"/>
      <point x="429" y="938"/>
      <point x="531" y="938" type="curve" smooth="yes"/>
      <point x="668" y="938"/>
      <point x="756" y="733"/>
      <point x="756" y="460" type="curve" smooth="yes"/>
      <point x="756" y="201"/>
      <point x="670" y="-10"/>
      <point x="534" y="-10" type="curve" smooth="yes"/>
      <point x="432" y="-10"/>
      <point x="364" y="107"/>
      <point x="326" y="240" type="curve"/>
      <point x="27" y="228" type="line"/>
      <point x="85" y="51"/>
      <point x="288" y="-42"/>
    </contour>
    <contour>
      <point x="786" y="454" type="line"/>
      <point x="761" y="478" type="line"/>
      <point x="330" y="474" type="line"/>
      <point x="355" y="448" type="line"/>
    </contour>
  </outline>
</glyph>
<glyph name="ia-cy" format="2">
  <advance width="1007"/>
  <unicode hex="044F"/>
  <anchor x="504" y="929" name="top"/>
  <outline>
    <contour>
      <point x="601" y="0" type="line"/>
      <point x="883" y="0" type="line"/>
      <point x="883" y="929" type="line"/>
      <point x="457" y="928" type="line" smooth="yes"/>
      <point x="283" y="927"/>
      <point x="109" y="859"/>
      <point x="109" y="671" type="curve" smooth="yes"/>
      <point x="109" y="530"/>
      <point x="196" y="386"/>
      <point x="421" y="386" type="curve" smooth="yes"/>
      <point x="550" y="386" type="line"/>
      <point x="710" y="386" type="line"/>
      <point x="602" y="398" type="line"/>
    </contour>
    <contour>
      <point x="602" y="403" type="line"/>
      <point x="705" y="417" type="line"/>
      <point x="606" y="417" type="line" smooth="yes"/>
      <point x="435" y="417"/>
      <point x="371" y="478"/>
      <point x="371" y="667" type="curve" smooth="yes"/>
      <point x="371" y="837"/>
      <point x="413" y="899"/>
      <point x="638" y="899" type="curve" smooth="yes"/>
      <point x="771" y="899" type="line"/>
      <point x="601" y="912" type="line"/>
    </contour>
    <contour>
      <point x="55" y="0" type="curve"/>
      <point x="336" y="0" type="line"/>
      <point x="354" y="75"/>
      <point x="354" y="107"/>
      <point x="367" y="195" type="curve" smooth="yes"/>
      <point x="379" y="272"/>
      <point x="387" y="306"/>
      <point x="415" y="344" type="curve" smooth="yes"/>
      <point x="442" y="382"/>
      <point x="467" y="394"/>
      <point x="563" y="407" type="curve"/>
      <point x="400" y="438" type="line" smooth="yes"/>
      <point x="316" y="454"/>
      <point x="238" y="437"/>
      <point x="186" y="391" type="curve" smooth="yes"/>
      <point x="145" y="354"/>
      <point x="118" y="311"/>
      <point x="108" y="231" type="curve" smooth="yes"/>
      <point x="100" y="165"/>
      <point x="71" y="50"/>
    </contour>
  </outline>
</glyph>
<glyph name="dje-cy" format="2">
  <advance width="1265"/>
  <unicode hex="0452"/>
  <outline>
    <contour>
      <point x="138" y="0" type="line"/>
      <point x="420" y="0" type="line"/>
      <point x="420" y="652" type="line" smooth="yes"/>
      <point x="420" y="848"/>
      <point x="617" y="919"/>
      <point x="705" y="919" type="curve" smooth="yes"/>
      <point x="842" y="919"/>
      <point x="874" y="749"/>
      <point x="874" y="546" type="curve" smooth="yes"/>
      <point x="874" y="80" type="line"/>
      <point x="1156" y="0" type="line"/>
      <point x="1156" y="608" type="line" smooth="yes"/>
      <point x="1156" y="808"/>
      <point x="977" y="955"/>
      <point x="735" y="955" type="curve" smooth="yes"/>
      <point x="533" y="955"/>
      <point x="384" y="852"/>
      <point x="397" y="581" type="curve"/>
      <point x="417" y="500" type="line"/>
      <point x="420" y="1529" type="line"/>
      <point x="138" y="1529" type="line"/>
    </contour>
    <contour>
      <point x="32" y="1248" type="line"/>
      <point x="542" y="1248" type="line"/>
      <point x="542" y="1274" type="line"/>
      <point x="32" y="1274" type="line"/>
    </contour>
    <contour>
      <point x="799" y="-555" type="curve" smooth="yes"/>
      <point x="1000" y="-555"/>
      <point x="1156" y="-494"/>
      <point x="1156" y="-68" type="curve" smooth="yes"/>
      <point x="1156" y="329" type="line"/>
      <point x="874" y="329" type="line"/>
      <point x="874" y="32" type="line" smooth="yes"/>
      <point x="874" y="-211"/>
      <point x="912" y="-504"/>
      <point x="801" y="-526" type="curve" smooth="yes"/>
      <point x="729" y="-540"/>
      <point x="649" y="-432"/>
      <point x="649" y="-345" type="curve" smooth="yes"/>
      <point x="649" y="-326"/>
      <point x="653" y="-285"/>
      <point x="667" y="-256" type="curve"/>
      <point x="514" y="-290" type="line"/>
      <point x="509" y="-316"/>
      <point x="508" y="-350"/>
      <point x="508" y="-362" type="curve" smooth="yes"/>
      <point x="508" y="-497"/>
      <point x="603" y="-555"/>
    </contour>
  </outline>
</glyph>
<glyph name="Izhitsa-cy" format="2">
  <advance width="1861"/>
  <unicode hex="0474"/>
  <anchor x="931" y="1445" name="top"/>
  <outline>
    <contour>
      <point x="774" y="-57" type="line"/>
      <point x="1185" y="843" type="line" smooth="yes"/>
      <point x="1298" y="1090"/>
      <point x="1399" y="1450"/>
      <point x="1577" y="1450" type="curve" smooth="yes"/>
      <point x="1655" y="1450"/>
      <point x="1705" y="1375"/>
      <point x="1705" y="1269" type="curve" smooth="yes"/>
      <point x="1705" y="1248"/>
      <point x="1703" y="1214"/>
      <point x="1696" y="1174" type="curve"/>
      <point x="1819" y="1214" type="line"/>
      <point x="1824" y="1240"/>
      <point x="1825" y="1272"/>
      <point x="1825" y="1286" type="curve" smooth="yes"/>
      <point x="1825" y="1419"/>
      <point x="1698" y="1479"/>
      <point x="1574" y="1479" type="curve" smooth="yes"/>
      <point x="1350" y="1479"/>
      <point x="1303" y="1283"/>
      <point x="1148" y="951" type="curve" smooth="yes"/>
      <point x="817" y="242" type="line"/>
      <point x="916" y="311" type="line"/>
      <point x="337" y="1445" type="line"/>
      <point x="32" y="1445" type="line"/>
    </contour>
  </outline>
</glyph>
<glyph name="izhitsa-cy" format="2">
  <advance width="1314"/>
  <unicode hex="0475"/>
  <anchor x="657" y="929" name="top"/>
  <outline>
    <contour>
      <point x="462" y="-36" type="line"/>
      <point x="463" y="-36" type="line"/>
      <point x="655" y="364" type="line" smooth="yes"/>
      <point x="771" y="606"/>
      <point x="875" y="933"/>
      <point x="1067" y="937" type="curve"/>
      <point x="1126" y="926"/>
      <point x="1171" y="882"/>
      <point x="1196" y="827" type="curve"/>
      <point x="1322" y="888" type="line"/>
      <point x="1273" y="945"/>
      <point x="1158" y="971"/>
      <point x="1069" y="971" type="curve" smooth="yes"/>
      <point x="825" y="971"/>
      <point x="786" y="775"/>
      <point x="630" y="449" type="curve" smooth="yes"/>
      <point x="495" y="167" type="line"/>
      <point x="583" y="255" type="line"/>
      <point x="264" y="929" type="line"/>
      <point x="7" y="929" type="line"/>
    </contour>
  </outline>
</glyph>
<glyph name="Shha-cy" format="2">
  <advance width="1260"/>
  <unicode hex="04BA"/>
  <anchor x="1240" y="0" name="bottomright"/>
  <outline>
    <contour>
      <point x="170" y="0" type="line"/>
      <point x="450" y="0" type="line"/>
      <point x="450" y="592" type="line" smooth="yes"/>
      <point x="450" y="681"/>
      <point x="602" y="805"/>
      <point x="723" y="805" type="curve" smooth="yes"/>
      <point x="868" y="805"/>
      <point x="900" y="627"/>
      <point x="900" y="246" type="curve" smooth="yes"/>
      <point x="900" y="0" type="line"/>
      <point x="1180" y="0" type="line"/>
      <point x="1180" y="278" type="line" smooth="yes"/>
      <point x="1180" y="737"/>
      <point x="981" y="835"/>
      <point x="749" y="835" type="curve" smooth="yes"/>
      <point x="572" y="835"/>
      <point x="455" y="778"/>
      <point x="373" y="461" type="curve"/>
      <point x="450" y="584" type="line"/>
      <point x="450" y="1445" type="line"/>
      <point x="170" y="1445" type="line"/>
    </contour>
  </outline>
</glyph>
<glyph name="Germandbls" format="2">
  <advance width="1672"/>
  <unicode hex="1E9E"/>
  <anchor x="381" y="0" name="bottom"/>
  <anchor x="381" y="1524" name="top"/>
  <outline>
    <contour>
      <point x="1069" y="-40" type="curve" smooth="yes"/>
      <point x="1451" y="-40"/>
      <point x="1576" y="191"/>
      <point x="1576" y="426" type="curve" smooth="yes"/>
      <point x="1576" y="798"/>
      <point x="1298" y="831"/>
      <point x="1078" y="899" type="curve" smooth="yes"/>
      <point x="1032" y="913"/>
      <point x="960" y="933"/>
      <point x="936" y="943" type="curve"/>
      <point x="1101" y="696" type="line"/>
      <point x="1333" y="1430" type="line"/>
      <point x="1290" y="1441"/>
      <point x="1130" y="1529"/>
      <point x="833" y="1529" type="curve" smooth="yes"/>
      <point x="474" y="1529"/>
      <point x="190" y="1400"/>
      <point x="190" y="1077" type="curve" smooth="yes"/>
      <point x="190" y="0" type="line"/>
      <point x="481" y="0" type="line"/>
      <point x="481" y="1178" type="line" smooth="yes"/>
      <point x="481" y="1390"/>
      <point x="616" y="1503"/>
      <point x="833" y="1503" type="curve" smooth="yes"/>
      <point x="874" y="1503"/>
      <point x="1088" y="1499"/>
      <point x="1241" y="1397" type="curve"/>
      <point x="1088" y="1487" type="line"/>
      <point x="870" y="757" type="line"/>
      <point x="946" y="734"/>
      <point x="997" y="718"/>
      <point x="1022" y="710" type="curve" smooth="yes"/>
      <point x="1263" y="637"/>
      <point x="1332" y="511"/>
      <point x="1332" y="368" type="curve" smooth="yes"/>
      <point x="1332" y="192"/>
      <point x="1314" y="-14"/>
      <point x="1083" y="-14" type="curve" smooth="yes"/>
      <point x="971" y="-14"/>
      <point x="792" y="35"/>
      <point x="699" y="192" type="curve"/>
      <point x="675" y="93" type="line"/>
      <point x="736" y="10"/>
      <point x="891" y="-40"/>
    </contour>
  </outline>
</glyph>
<glyph name="dagger" format="2">
  <advance width="1138"/>
  <unicode hex="2020"/>
  <note>
dagger
</note>
  <outline>
    <contour>
      <point x="569" y="-300" type="curve" smooth="yes"/>
      <point x="635" y="-300"/>
      <point x="684" y="-241"/>
      <point x="684" y="-162" type="curve" smooth="yes"/>
      <point x="684" y="597" type="line" smooth="yes"/>
      <point x="684" y="787"/>
      <point x="639" y="1022"/>
      <point x="609" y="992" type="curve" smooth="yes"/>
      <point x="579" y="962"/>
      <point x="740" y="916"/>
      <point x="941" y="916" type="curve" smooth="yes"/>
      <point x="1020" y="916"/>
      <point x="1079" y="937"/>
      <point x="1079" y="966" type="curve" smooth="yes"/>
      <point x="1079" y="995"/>
      <point x="1020" y="1016"/>
      <point x="941" y="1016" type="curve" smooth="yes"/>
      <point x="719" y="1016"/>
      <point x="572" y="978"/>
      <point x="609" y="941" type="curve" smooth="yes"/>
      <point x="646" y="904"/>
      <point x="684" y="1058"/>
      <point x="684" y="1226" type="curve" smooth="yes"/>
      <point x="684" y="1305"/>
      <point x="635" y="1414"/>
      <point x="569" y="1414" type="curve" smooth="yes"/>
      <point x="503" y="1414"/>
      <point x="454" y="1305"/>
      <point x="454" y="1226" type="curve" smooth="yes"/>
      <point x="454" y="1058"/>
      <point x="492" y="904"/>
      <point x="529" y="941" type="curve" smooth="yes"/>
      <point x="566" y="978"/>
      <point x="419" y="1016"/>
      <point x="197" y="1016" type="curve" smooth="yes"/>
      <point x="118" y="1016"/>
      <point x="59" y="995"/>
      <point x="59" y="966" type="curve" smooth="yes"/>
      <point x="59" y="937"/>
      <point x="118" y="916"/>
      <point x="197" y="916" type="curve" smooth="yes"/>
      <point x="398" y="916"/>
      <point x="559" y="962"/>
      <point x="529" y="992" type="curve" smooth="yes"/>
      <point x="499" y="1022"/>
      <point x="454" y="787"/>
      <point x="454" y="597" type="curve" smooth="yes"/>
      <point x="454" y="-162" type="line" smooth="yes"/>
      <point x="454" y="-241"/>
      <point x="503" y="-300"/>
    </contour>
  </outline>
</glyph>
<glyph name="daggerdbl" format="2">
  <advance width="1175"/>
  <unicode hex="2021"/>
  <note>
daggerdbl
</note>
  <outline>
    <contour>
      <point x="587" y="-300" type="curve" smooth="yes"/>
      <point x="653" y="-300"/>
      <point x="702" y="-191"/>
      <point x="702" y="-112" type="curve" smooth="yes"/>
      <point x="702" y="-17"/>
      <point x="690" y="74"/>
      <point x="673" y="128" type="curve"/>
      <point x="730" y="110"/>
      <point x="832" y="98"/>
      <point x="959" y="98" type="curve" smooth="yes"/>
      <point x="1038" y="98"/>
      <point x="1097" y="119"/>
      <point x="1097" y="148" type="curve" smooth="yes"/>
      <point x="1097" y="177"/>
      <point x="1038" y="198"/>
      <point x="959" y="198" type="curve" smooth="yes"/>
      <point x="830" y="198"/>
      <point x="717" y="179"/>
      <point x="661" y="157" type="curve"/>
      <point x="681" y="236"/>
      <point x="702" y="407"/>
      <point x="702" y="517" type="curve" smooth="yes"/>
      <point x="702" y="597" type="line" smooth="yes"/>
      <point x="702" y="705"/>
      <point x="682" y="875"/>
      <point x="661" y="957" type="curve"/>
      <point x="717" y="935"/>
      <point x="830" y="916"/>
      <point x="959" y="916" type="curve" smooth="yes"/>
      <point x="1038" y="916"/>
      <point x="1097" y="937"/>
      <point x="1097" y="966" type="curve" smooth="yes"/>
      <point x="1097" y="995"/>
      <point x="1038" y="1016"/>
      <point x="959" y="1016" type="curve" smooth="yes"/>
      <point x="832" y="1016"/>
      <point x="730" y="1004"/>
      <point x="673" y="986" type="curve"/>
      <point x="690" y="1040"/>
      <point x="702" y="1131"/>
      <point x="702" y="1226" type="curve" smooth="yes"/>
      <point x="702" y="1305"/>
      <point x="653" y="1414"/>
      <point x="587" y="1414" type="curve" smooth="yes"/>
      <point x="521" y="1414"/>
      <point x="472" y="1305"/>
      <point x="472" y="1226" type="curve" smooth="yes"/>
      <point x="472" y="1131"/>
      <point x="484" y="1040"/>
      <point x="501" y="986" type="curve"/>
      <point x="444" y="1004"/>
      <point x="342" y="1016"/>
      <point x="215" y="1016" type="curve" smooth="yes"/>
      <point x="136" y="1016"/>
      <point x="77" y="995"/>
      <point x="77" y="966" type="curve" smooth="yes"/>
      <point x="77" y="937"/>
      <point x="136" y="916"/>
      <point x="215" y="916" type="curve" smooth="yes"/>
      <point x="344" y="916"/>
      <point x="457" y="935"/>
      <point x="513" y="957" type="curve"/>
      <point x="493" y="878"/>
      <point x="472" y="707"/>
      <point x="472" y="597" type="curve" smooth="yes"/>
      <point x="472" y="517" type="line" smooth="yes"/>
      <point x="472" y="409"/>
      <point x="492" y="239"/>
      <point x="513" y="157" type="curve"/>
      <point x="457" y="179"/>
      <point x="344" y="198"/>
      <point x="215" y="198" type="curve" smooth="yes"/>
      <point x="136" y="198"/>
      <point x="77" y="177"/>
      <point x="77" y="148" type="curve" smooth="yes"/>
      <point x="77" y="119"/>
      <point x="136" y="98"/>
      <point x="215" y="98" type="curve" smooth="yes"/>
      <point x="342" y="98"/>
      <point x="444" y="110"/>
      <point x="501" y="128" type="curve"/>
      <point x="484" y="74"/>
      <point x="472" y="-17"/>
      <point x="472" y="-112" type="curve" smooth="yes"/>
      <point x="472" y="-191"/>
      <point x="521" y="-300"/>
    </contour>
  </outline>
</glyph>
<glyph name="guilsinglleft" format="2">
  <advance width="537"/>
  <unicode hex="2039"/>
  <note>
guilsinglleft
</note>
  <outline>
    <contour>
      <point x="363" y="-11" type="line"/>
      <point x="473" y="80" type="line"/>
      <point x="233" y="442" type="line"/>
      <point x="471" y="812" type="line"/>
      <point x="346" y="889" type="line"/>
      <point x="34" y="442" type="line"/>
    </contour>
  </outline>
</glyph>
<glyph name="franc" format="2">
  <advance width="1807"/>
  <unicode hex="20A3"/>
  <note>
franc
</note>
  <outline>
    <contour>
      <point x="223" y="0" type="line"/>
      <point x="483" y="0" type="line"/>
      <point x="483" y="802" type="line"/>
      <point x="330" y="765" type="line"/>
      <point x="1187" y="765" type="line"/>
      <point x="1187" y="791" type="line"/>
      <point x="302" y="791" type="line"/>
      <point x="483" y="758" type="line"/>
      <point x="483" y="1431" type="line"/>
      <point x="260" y="1419" type="line"/>
      <point x="1187" y="1419" type="line"/>
      <point x="1187" y="1445" type="line"/>
      <point x="223" y="1445" type="line"/>
    </contour>
    <contour>
      <point x="905" y="0" type="line"/>
      <point x="1187" y="0" type="line"/>
      <point x="1187" y="484" type="line" smooth="yes"/>
      <point x="1187" y="593"/>
      <point x="1291" y="781"/>
      <point x="1410" y="781" type="curve" smooth="yes"/>
      <point x="1545" y="781"/>
      <point x="1556" y="698"/>
      <point x="1556" y="643" type="curve" smooth="yes"/>
      <point x="1556" y="568"/>
      <point x="1536" y="542"/>
      <point x="1518" y="524" type="curve"/>
      <point x="1686" y="484" type="line"/>
      <point x="1709" y="548"/>
      <point x="1714" y="584"/>
      <point x="1714" y="614" type="curve" smooth="yes"/>
      <point x="1714" y="741"/>
      <point x="1621" y="817"/>
      <point x="1470" y="817" type="curve" smooth="yes"/>
      <point x="1330" y="817"/>
      <point x="1227" y="731"/>
      <point x="1183" y="552" type="curve"/>
      <point x="1187" y="510" type="line"/>
      <point x="1187" y="791" type="line"/>
      <point x="905" y="791" type="line"/>
    </contour>
  </outline>
</glyph>
<glyph name="kip" format="2">
  <advance width="1646"/>
  <unicode hex="20AD"/>
  <outline>
    <contour>
      <point x="1212" y="0" type="line"/>
      <point x="1549" y="0" type="line"/>
      <point x="981" y="769" type="line"/>
      <point x="697" y="698" type="line"/>
    </contour>
    <contour>
      <point x="223" y="0" type="line"/>
      <point x="503" y="0" type="line"/>
      <point x="503" y="1445" type="line"/>
      <point x="223" y="1445" type="line"/>
    </contour>
    <contour>
      <point x="443" y="690" type="line"/>
      <point x="939" y="690" type="line"/>
      <point x="939" y="756" type="line"/>
      <point x="443" y="756" type="line"/>
    </contour>
    <contour>
      <point x="926" y="670" type="line"/>
      <point x="1538" y="1445" type="line"/>
      <point x="1335" y="1445" type="line"/>
      <point x="756" y="712" type="line"/>
    </contour>
  </outline>
</glyph>
<glyph name="peso" format="2">
  <advance width="1471"/>
  <unicode hex="20B1"/>
  <anchor x="713" y="0" name="_bottom"/>
  <anchor x="713" y="415" name="bar"/>
  <anchor x="713" y="-266" name="bottom"/>
  <anchor x="713" y="1445" name="top"/>
  <outline>
    <contour>
      <point x="103" y="1184" type="line"/>
      <point x="1373" y="1184" type="line"/>
      <point x="1373" y="1210" type="line"/>
      <point x="103" y="1210" type="line"/>
    </contour>
    <contour>
      <point x="103" y="884" type="line"/>
      <point x="1373" y="884" type="line"/>
      <point x="1373" y="910" type="line"/>
      <point x="103" y="910" type="line"/>
    </contour>
    <component base="P" xOffset="110"/>
  </outline>
</glyph>
<glyph name="guarani" format="2">
  <advance width="1708"/>
  <unicode hex="20B2"/>
  <anchor x="856" y="0" name="bottom"/>
  <anchor x="856" y="1430" name="top"/>
  <outline>
    <contour>
      <point x="882" y="-41" type="curve" smooth="yes"/>
      <point x="1285" y="-27"/>
      <point x="1590" y="275"/>
      <point x="1618" y="665" type="curve"/>
      <point x="1319" y="665" type="line"/>
      <point x="1306" y="287"/>
      <point x="1107" y="-3"/>
      <point x="881" y="-11" type="curve" smooth="yes"/>
      <point x="644" y="-19"/>
      <point x="423" y="286"/>
      <point x="416" y="696" type="curve" smooth="yes"/>
      <point x="409" y="1107"/>
      <point x="622" y="1436"/>
      <point x="866" y="1444" type="curve" smooth="yes"/>
      <point x="1012" y="1449"/>
      <point x="1233" y="1341"/>
      <point x="1289" y="1101" type="curve"/>
      <point x="1482" y="1211" type="line"/>
      <point x="1375" y="1409"/>
      <point x="1083" y="1482"/>
      <point x="866" y="1474" type="curve" smooth="yes"/>
      <point x="430" y="1459"/>
      <point x="108" y="1112"/>
      <point x="116" y="685" type="curve" smooth="yes"/>
      <point x="124" y="260"/>
      <point x="453" y="-56"/>
    </contour>
    <contour>
      <point x="1055" y="645" type="line"/>
      <point x="1419" y="645" type="line"/>
      <point x="1419" y="665" type="line"/>
      <point x="1055" y="665" type="line"/>
    </contour>
    <contour>
      <point x="803" y="-181" type="line"/>
      <point x="913" y="-181" type="line"/>
      <point x="913" y="1605" type="line"/>
      <point x="803" y="1605" type="line"/>
    </contour>
  </outline>
</glyph>
<glyph name="rupeeIndian" format="2">
  <advance width="1352"/>
  <unicode hex="20B9"/>
  <outline>
    <contour>
      <point x="420" y="624" type="line"/>
      <point x="525" y="610"/>
      <point x="574" y="606"/>
      <point x="635" y="516" type="curve" smooth="yes"/>
      <point x="679" y="451"/>
      <point x="691" y="409"/>
      <point x="709" y="296" type="curve" smooth="yes"/>
      <point x="731" y="160"/>
      <point x="752" y="84"/>
      <point x="783" y="0" type="curve"/>
      <point x="1043" y="0" type="line"/>
      <point x="1025" y="74"/>
      <point x="985" y="195"/>
      <point x="965" y="320" type="curve" smooth="yes"/>
      <point x="940" y="477"/>
      <point x="881" y="531"/>
      <point x="849" y="559" type="curve" smooth="yes"/>
      <point x="744" y="651"/>
      <point x="670" y="643"/>
      <point x="569" y="652" type="curve"/>
    </contour>
    <contour>
      <point x="121" y="650" type="line"/>
      <point x="121" y="624" type="line"/>
      <point x="420" y="624" type="line"/>
      <point x="514" y="628" type="line" smooth="yes"/>
      <point x="802" y="646"/>
      <point x="960" y="767"/>
      <point x="954" y="1053" type="curve" smooth="yes"/>
      <point x="946" y="1406"/>
      <point x="682" y="1445"/>
      <point x="406" y="1445" type="curve" smooth="yes"/>
      <point x="121" y="1445" type="line"/>
      <point x="121" y="1419" type="line"/>
      <point x="359" y="1419" type="line" smooth="yes"/>
      <point x="548" y="1419"/>
      <point x="681" y="1269"/>
      <point x="686" y="1032" type="curve" smooth="yes"/>
      <point x="690" y="796"/>
      <point x="567" y="650"/>
      <point x="371" y="650" type="curve" smooth="yes"/>
    </contour>
    <contour>
      <point x="121" y="1419" type="line"/>
      <point x="1253" y="1419" type="line"/>
      <point x="1253" y="1445" type="line"/>
      <point x="121" y="1445" type="line"/>
    </contour>
    <contour>
      <point x="121" y="1029" type="line"/>
      <point x="1253" y="1029" type="line"/>
      <point x="1253" y="1055" type="line"/>
      <point x="121" y="1055" type="line"/>
    </contour>
  </outline>
</glyph>
<glyph name="liraTurkish" format="2">
  <advance width="1240"/>
  <unicode hex="20BA"/>
  <outline>
    <contour>
      <point x="327" y="0" type="line"/>
      <point x="1017" y="0"/>
      <point x="1071" y="33"/>
      <point x="1144" y="500" type="curve"/>
      <point x="1057" y="460" type="line"/>
      <point x="1052" y="58"/>
      <point x="949" y="20"/>
      <point x="370" y="16" type="curve"/>
      <point x="607" y="14" type="line"/>
      <point x="607" y="1445" type="line"/>
      <point x="327" y="1445" type="line"/>
    </contour>
    <contour>
      <point x="106" y="491" type="line"/>
      <point x="829" y="926" type="line"/>
      <point x="814" y="951" type="line"/>
      <point x="91" y="516" type="line"/>
    </contour>
    <contour>
      <point x="106" y="691" type="line"/>
      <point x="829" y="1126" type="line"/>
      <point x="814" y="1151" type="line"/>
      <point x="91" y="716" type="line"/>
    </contour>
  </outline>
</glyph>
<glyph name="manat" format="2">
  <advance width="1356"/>
  <unicode hex="20BC"/>
  <outline>
    <contour>
      <point x="150" y="0" type="line"/>
      <point x="397" y="0" type="line"/>
      <point x="397" y="457" type="line"/>
      <point x="397" y="773"/>
      <point x="514" y="937"/>
      <point x="678" y="937" type="curve" smooth="yes"/>
      <point x="842" y="937"/>
      <point x="959" y="773"/>
      <point x="959" y="457" type="curve"/>
      <point x="959" y="0" type="line"/>
      <point x="1206" y="0" type="line"/>
      <point x="1206" y="451" type="line"/>
      <point x="1206" y="764"/>
      <point x="1015" y="963"/>
      <point x="678" y="969" type="curve"/>
      <point x="341" y="963"/>
      <point x="150" y="764"/>
      <point x="150" y="451" type="curve"/>
    </contour>
    <contour>
      <point x="618" y="0" type="line"/>
      <point x="738" y="0" type="line"/>
      <point x="738" y="1290" type="line"/>
      <point x="618" y="1290" type="line"/>
    </contour>
  </outline>
</glyph>
<glyph name="ruble" format="2">
  <advance width="1478"/>
  <unicode hex="20BD"/>
  <anchor x="848" y="0" name="_bottom"/>
  <anchor x="848" y="415" name="bar"/>
  <anchor x="848" y="-266" name="bottom"/>
  <anchor x="848" y="1445" name="top"/>
  <outline>
    <contour>
      <point x="98" y="634" type="line"/>
      <point x="598" y="634" type="line"/>
      <point x="598" y="660" type="line"/>
      <point x="98" y="660" type="line"/>
    </contour>
    <contour>
      <point x="98" y="334" type="line"/>
      <point x="988" y="334" type="line"/>
      <point x="988" y="360" type="line"/>
      <point x="98" y="360" type="line"/>
    </contour>
    <component base="P" xOffset="245"/>
  </outline>
</glyph>
<glyph name="partialdiff" format="2">
  <advance width="1143"/>
  <unicode hex="2202"/>
  <note>
partialdiff
</note>
  <outline>
    <contour>
      <point x="498" y="-39" type="curve" smooth="yes"/>
      <point x="823" y="-39"/>
      <point x="1015" y="282"/>
      <point x="1015" y="732" type="curve" smooth="yes"/>
      <point x="1015" y="1086"/>
      <point x="852" y="1299"/>
      <point x="604" y="1299" type="curve" smooth="yes"/>
      <point x="437" y="1299"/>
      <point x="268" y="1199"/>
      <point x="268" y="1120" type="curve" smooth="yes"/>
      <point x="268" y="1086"/>
      <point x="307" y="1065"/>
      <point x="337" y="1065" type="curve" smooth="yes"/>
      <point x="401" y="1065"/>
      <point x="441" y="1158"/>
      <point x="485" y="1196" type="curve" smooth="yes"/>
      <point x="508" y="1216"/>
      <point x="533" y="1258"/>
      <point x="600" y="1258" type="curve" smooth="yes"/>
      <point x="765" y="1258"/>
      <point x="784" y="1003"/>
      <point x="783" y="902" type="curve" smooth="yes"/>
      <point x="782" y="840"/>
      <point x="784" y="788"/>
      <point x="745" y="647" type="curve"/>
      <point x="690" y="774"/>
      <point x="615" y="793"/>
      <point x="536" y="793" type="curve" smooth="yes"/>
      <point x="284" y="793"/>
      <point x="95" y="593"/>
      <point x="95" y="346" type="curve" smooth="yes"/>
      <point x="95" y="110"/>
      <point x="276" y="-39"/>
    </contour>
    <contour>
      <point x="498" y="-9" type="curve" smooth="yes"/>
      <point x="436" y="-9"/>
      <point x="385" y="102"/>
      <point x="385" y="260" type="curve" smooth="yes"/>
      <point x="385" y="479"/>
      <point x="490" y="755"/>
      <point x="580" y="755" type="curve" smooth="yes"/>
      <point x="646" y="755"/>
      <point x="683" y="607"/>
      <point x="683" y="472" type="curve" smooth="yes"/>
      <point x="683" y="240"/>
      <point x="591" y="-9"/>
    </contour>
  </outline>
</glyph>
<glyph name="emptyset" format="2">
  <advance width="1200"/>
  <unicode hex="2205"/>
  <outline>
    <contour>
      <point x="556" y="-36" type="curve" smooth="yes"/>
      <point x="833" y="-36"/>
      <point x="1058" y="190"/>
      <point x="1058" y="468" type="curve" smooth="yes"/>
      <point x="1058" y="745"/>
      <point x="833" y="970"/>
      <point x="556" y="970" type="curve" smooth="yes"/>
      <point x="278" y="970"/>
      <point x="53" y="745"/>
      <point x="53" y="468" type="curve" smooth="yes"/>
      <point x="53" y="190"/>
      <point x="278" y="-36"/>
    </contour>
    <contour>
      <point x="555" y="132" type="curve" smooth="yes"/>
      <point x="370" y="132"/>
      <point x="220" y="282"/>
      <point x="220" y="467" type="curve" smooth="yes"/>
      <point x="220" y="652"/>
      <point x="370" y="802"/>
      <point x="555" y="802" type="curve" smooth="yes"/>
      <point x="740" y="802"/>
      <point x="890" y="652"/>
      <point x="890" y="467" type="curve" smooth="yes"/>
      <point x="890" y="282"/>
      <point x="740" y="132"/>
    </contour>
    <component base="slashlongcomb" xOffset="170" yOffset="-2"/>
  </outline>
</glyph>
<glyph name="product" format="2">
  <advance width="1732"/>
  <unicode hex="220F"/>
  <note>
product
</note>
  <outline>
    <contour>
      <point x="211" y="-399" type="line"/>
      <point x="535" y="-399" type="line"/>
      <point x="535" y="1255" type="line"/>
      <point x="1195" y="1255" type="line"/>
      <point x="1195" y="-399" type="line"/>
      <point x="1521" y="-399" type="line"/>
      <point x="1521" y="1453" type="line"/>
      <point x="211" y="1453" type="line"/>
    </contour>
  </outline>
</glyph>
<glyph name="radical" format="2">
  <advance width="1461"/>
  <unicode hex="221A"/>
  <note>
radical
</note>
  <outline>
    <contour>
      <point x="523" y="-55" type="line"/>
      <point x="690" y="-55" type="line"/>
      <point x="1270" y="1513" type="line"/>
      <point x="1394" y="1513" type="line"/>
      <point x="1394" y="1623" type="line"/>
      <point x="1094" y="1623" type="line"/>
      <point x="642" y="406" type="line"/>
      <point x="432" y="985" type="line"/>
      <point x="64" y="856" type="line"/>
      <point x="99" y="750" type="line"/>
      <point x="216" y="792" type="line"/>
    </contour>
  </outline>
</glyph>
<glyph name="lozenge" format="2">
  <advance width="1236"/>
  <unicode hex="25CA"/>
  <note>
lozenge
</note>
  <outline>
    <contour>
      <point x="618" y="-598" type="line"/>
      <point x="1168" y="578" type="line"/>
      <point x="618" y="1745" type="line"/>
      <point x="68" y="578" type="line"/>
    </contour>
    <contour>
      <point x="618" y="-95" type="line"/>
      <point x="304" y="578" type="line"/>
      <point x="618" y="1245" type="line"/>
      <point x="932" y="578" type="line"/>
    </contour>
  </outline>
</glyph>
<glyph name="leftanglebracket-math" format="2">
  <advance width="718"/>
  <unicode hex="27E8"/>
  <outline>
    <contour>
      <point x="576" y="179" type="line"/>
      <point x="674" y="277" type="line"/>
      <point x="236" y="717" type="line"/>
      <point x="672" y="1166" type="line"/>
      <point x="563" y="1250" type="line"/>
      <point x="20" y="717" type="line"/>
    </contour>
  </outline>
</glyph>
<glyph name="fi" format="2">
  <advance width="1032"/>
  <unicode hex="F001"/>
  <note>
fi
</note>
  <anchor x="516" y="0" name="caret_1"/>
  <outline>
    <contour>
      <point x="177" y="0" type="line"/>
      <point x="459" y="0" type="line"/>
      <point x="459" y="920" type="line"/>
      <point x="308" y="899" type="line"/>
      <point x="695" y="899" type="line"/>
      <point x="695" y="929" type="line"/>
      <point x="308" y="929" type="line"/>
      <point x="459" y="778" type="line"/>
      <point x="459" y="942" type="line" smooth="yes"/>
      <point x="459" y="1185"/>
      <point x="362" y="1525"/>
      <point x="479" y="1550" type="curve" smooth="yes"/>
      <point x="545" y="1564"/>
      <point x="669" y="1445"/>
      <point x="669" y="1354" type="curve" smooth="yes"/>
      <point x="669" y="1339"/>
      <point x="667" y="1299"/>
      <point x="660" y="1259" type="curve"/>
      <point x="883" y="1299" type="line"/>
      <point x="888" y="1325"/>
      <point x="889" y="1359"/>
      <point x="889" y="1371" type="curve" smooth="yes"/>
      <point x="889" y="1506"/>
      <point x="648" y="1579"/>
      <point x="481" y="1579" type="curve" smooth="yes"/>
      <point x="251" y="1579"/>
      <point x="177" y="1468"/>
      <point x="177" y="1042" type="curve" smooth="yes"/>
      <point x="177" y="778" type="line"/>
      <point x="328" y="929" type="line"/>
      <point x="3" y="929" type="line"/>
      <point x="3" y="899" type="line"/>
      <point x="328" y="899" type="line"/>
      <point x="177" y="910" type="line"/>
    </contour>
    <contour>
      <point x="625" y="0" type="line"/>
      <point x="948" y="0" type="line"/>
      <point x="948" y="929" type="line"/>
      <point x="625" y="929" type="line"/>
    </contour>
  </outline>
</glyph>
<glyph name="H.t" format="2">
  <advance width="1670"/>
  <note>
H
</note>
  <anchor x="835" y="0" name="bottom"/>
  <anchor x="835" y="715" name="center"/>
  <anchor x="835" y="1430" name="top"/>
  <anchor x="42" y="1430" name="topleft"/>
  <outline>
    <contour>
      <point x="170" y="-15" type="line"/>
      <point x="450" y="-15" type="line"/>
      <point x="450" y="751" type="line"/>
      <point x="253" y="699" type="line"/>
      <point x="1417" y="699" type="line"/>
      <point x="1220" y="751" type="line"/>
      <point x="1220" y="-15" type="line"/>
      <point x="1500" y="-15" type="line"/>
      <point x="1500" y="1445" type="line"/>
      <point x="1220" y="1445" type="line"/>
      <point x="1220" y="673" type="line"/>
      <point x="1417" y="725" type="line"/>
      <point x="253" y="725" type="line"/>
      <point x="450" y="673" type="line"/>
      <point x="450" y="1445" type="line"/>
      <point x="170" y="1445" type="line"/>
    </contour>
  </outline>
</glyph>
<glyph name="W.rvrn" format="2">
  <advance width="1992"/>
  <note>
W
</note>
  <anchor x="815" y="0" name="bottom"/>
  <anchor x="815" y="1440" name="top"/>
  <outline>
    <contour>
      <point x="1331" y="-57" type="line"/>
      <point x="1957" y="1445" type="line"/>
      <point x="1884" y="1445" type="line"/>
      <point x="1383" y="271" type="line"/>
      <point x="1451" y="330" type="line"/>
      <point x="931" y="1445" type="line"/>
      <point x="652" y="1445" type="line"/>
    </contour>
    <contour>
      <point x="713" y="-57" type="line"/>
      <point x="1084" y="833" type="line"/>
      <point x="1034" y="903" type="line"/>
      <point x="765" y="271" type="line"/>
      <point x="833" y="330" type="line"/>
      <point x="313" y="1445" type="line"/>
      <point x="34" y="1445" type="line"/>
    </contour>
  </outline>
</glyph>
<glyph name="_cyrillic_bar" format="2">
  <advance width="510"/>
  <anchor x="255" y="484" name="_center"/>
  <outline>
    <contour>
      <point x="0" y="471" type="line"/>
      <point x="510" y="471" type="line"/>
      <point x="510" y="497" type="line"/>
      <point x="0" y="497" type="line"/>
    </contour>
  </outline>
</glyph>
<glyph name="_cyrillicdescender01" format="2">
  <advance width="1231"/>
  <outline>
    <contour>
      <point x="232" y="0" type="line"/>
      <point x="46" y="0" type="line"/>
      <point x="77" y="-221" type="line"/>
      <point x="201" y="-221" type="line"/>
    </contour>
  </outline>
</glyph>
<glyph name="_cyrillicdescender02.case" format="2">
  <advance width="196"/>
  <outline>
    <contour>
      <point x="0" y="0" type="line"/>
      <point x="31" y="-273" type="line"/>
      <point x="165" y="-273" type="line"/>
      <point x="196" y="0" type="line"/>
    </contour>
  </outline>
</glyph>
<glyph name="currency_horz_stroke.case" format="2">
  <advance width="1892"/>
  <anchor x="946" y="729" name="_bar"/>
  <anchor x="946" y="100" name="_bottom"/>
  <anchor x="946" y="515" name="bar"/>
  <anchor x="946" y="-166" name="bottom"/>
  <outline>
    <contour>
      <point x="396" y="677" type="line"/>
      <point x="1496" y="677" type="line"/>
      <point x="1496" y="793" type="line"/>
      <point x="396" y="793" type="line"/>
    </contour>
  </outline>
</glyph>
<glyph name="currency_horz_stroke_long.case" format="2">
  <advance width="1892"/>
  <anchor x="946" y="0" name="_bottom"/>
  <anchor x="944" y="-318" name="bottom"/>
  <outline>
    <contour>
      <point x="148" y="697" type="line"/>
      <point x="1744" y="697" type="line"/>
      <point x="1744" y="763" type="line"/>
      <point x="148" y="763" type="line"/>
    </contour>
  </outline>
</glyph>
<glyph name="currency_vert_stroke.case" format="2">
  <advance width="532"/>
  <anchor x="264" y="0" name="_bottom"/>
  <outline>
    <contour>
      <point x="211" y="-181" type="line"/>
      <point x="321" y="-181" type="line"/>
      <point x="321" y="1605" type="line"/>
      <point x="211" y="1605" type="line"/>
    </contour>
  </outline>
</glyph>
<glyph name="currency_vert_stroke" format="2">
  <advance width="612"/>
  <anchor x="249" y="1169" name="_top"/>
  <outline>
    <contour>
      <point x="206" y="67" type="line"/>
      <point x="406" y="67" type="line"/>
      <point x="406" y="1357" type="line"/>
      <point x="206" y="1357" type="line"/>
    </contour>
  </outline>
</glyph>
<glyph name="cyrillic_bar_long" format="2">
  <advance width="1264"/>
  <anchor x="632" y="715" name="_center"/>
  <outline>
    <contour>
      <point x="100" y="702" type="line"/>
      <point x="1164" y="702" type="line"/>
      <point x="1164" y="728" type="line"/>
      <point x="100" y="728" type="line"/>
    </contour>
  </outline>
</glyph>
<glyph name="eight.dnom" format="2">
  <advance width="855"/>
  <note>
eight
</note>
  <outline>
    <contour>
      <point x="407" y="-24" type="curve" smooth="yes"/>
      <point x="657" y="-24"/>
      <point x="801" y="77"/>
      <point x="799" y="257" type="curve" smooth="yes"/>
      <point x="797" y="397"/>
      <point x="704" y="513"/>
      <point x="441" y="597" type="curve" smooth="yes"/>
      <point x="436" y="599"/>
      <point x="303" y="638"/>
      <point x="301" y="728" type="curve" smooth="yes"/>
      <point x="298" y="883"/>
      <point x="386" y="947"/>
      <point x="429" y="947" type="curve" smooth="yes"/>
      <point x="586" y="947"/>
      <point x="681" y="865"/>
      <point x="682" y="766" type="curve" smooth="yes"/>
      <point x="684" y="621"/>
      <point x="590" y="564"/>
      <point x="522" y="526" type="curve"/>
      <point x="571" y="530" type="line"/>
      <point x="665" y="577"/>
      <point x="707" y="659"/>
      <point x="708" y="755" type="curve" smooth="yes"/>
      <point x="709" y="889"/>
      <point x="600" y="975"/>
      <point x="435" y="973" type="curve" smooth="yes"/>
      <point x="236" y="971"/>
      <point x="91" y="873"/>
      <point x="92" y="717" type="curve" smooth="yes"/>
      <point x="93" y="557"/>
      <point x="191" y="452"/>
      <point x="365" y="401" type="curve" smooth="yes"/>
      <point x="468" y="371"/>
      <point x="548" y="347"/>
      <point x="548" y="205" type="curve" smooth="yes"/>
      <point x="548" y="64"/>
      <point x="518" y="4"/>
      <point x="421" y="3" type="curve" smooth="yes"/>
      <point x="205" y="0"/>
      <point x="90" y="52"/>
      <point x="88" y="215" type="curve" smooth="yes"/>
      <point x="86" y="374"/>
      <point x="216" y="433"/>
      <point x="287" y="485" type="curve"/>
      <point x="243" y="488" type="line"/>
      <point x="109" y="416"/>
      <point x="56" y="335"/>
      <point x="57" y="217" type="curve" smooth="yes"/>
      <point x="59" y="38"/>
      <point x="182" y="-24"/>
    </contour>
  </outline>
</glyph>
<glyph name="f_f" format="2">
  <advance width="1138"/>
  <anchor x="550" y="0" name="caret_1"/>
  <outline>
    <contour>
      <point x="624" y="0" type="line"/>
      <point x="906" y="0" type="line"/>
      <point x="906" y="942" type="line" smooth="yes"/>
      <point x="906" y="1185"/>
      <point x="809" y="1525"/>
      <point x="926" y="1550" type="curve" smooth="yes"/>
      <point x="992" y="1564"/>
      <point x="1069" y="1460"/>
      <point x="1069" y="1369" type="curve" smooth="yes"/>
      <point x="1069" y="1354"/>
      <point x="1067" y="1314"/>
      <point x="1060" y="1274" type="curve"/>
      <point x="1213" y="1314" type="line"/>
      <point x="1218" y="1340"/>
      <point x="1219" y="1374"/>
      <point x="1219" y="1386" type="curve" smooth="yes"/>
      <point x="1219" y="1521"/>
      <point x="1095" y="1579"/>
      <point x="928" y="1579" type="curve" smooth="yes"/>
      <point x="698" y="1579"/>
      <point x="624" y="1468"/>
      <point x="624" y="1042" type="curve" smooth="yes"/>
    </contour>
    <contour>
      <point x="177" y="0" type="line"/>
      <point x="459" y="0" type="line"/>
      <point x="459" y="967" type="line" smooth="yes"/>
      <point x="459" y="1130"/>
      <point x="362" y="1470"/>
      <point x="479" y="1495" type="curve" smooth="yes"/>
      <point x="545" y="1509"/>
      <point x="622" y="1405"/>
      <point x="622" y="1314" type="curve"/>
      <point x="624" y="964" type="line"/>
      <point x="766" y="1314" type="line"/>
      <point x="771" y="1340"/>
      <point x="772" y="1319"/>
      <point x="772" y="1331" type="curve" smooth="yes"/>
      <point x="772" y="1466"/>
      <point x="648" y="1524"/>
      <point x="481" y="1524" type="curve" smooth="yes"/>
      <point x="254" y="1524"/>
      <point x="177" y="1415"/>
      <point x="177" y="1047" type="curve" smooth="yes"/>
    </contour>
    <contour>
      <point x="3" y="899" type="line"/>
      <point x="695" y="899" type="line"/>
      <point x="695" y="929" type="line"/>
      <point x="3" y="929" type="line"/>
    </contour>
    <contour>
      <point x="450" y="899" type="line"/>
      <point x="1142" y="899" type="line"/>
      <point x="1142" y="929" type="line"/>
      <point x="450" y="929" type="line"/>
    </contour>
  </outline>
</glyph>
<glyph name="f_f_i" format="2">
  <advance width="1449"/>
  <anchor x="503" y="0" name="caret_1"/>
  <anchor x="1010" y="0" name="caret_2"/>
  <outline>
    <contour>
      <point x="624" y="0" type="line"/>
      <point x="906" y="0" type="line"/>
      <point x="906" y="942" type="line" smooth="yes"/>
      <point x="906" y="1185"/>
      <point x="809" y="1525"/>
      <point x="926" y="1550" type="curve" smooth="yes"/>
      <point x="992" y="1564"/>
      <point x="1116" y="1445"/>
      <point x="1116" y="1354" type="curve" smooth="yes"/>
      <point x="1116" y="1339"/>
      <point x="1114" y="1299"/>
      <point x="1107" y="1259" type="curve"/>
      <point x="1330" y="1299" type="line"/>
      <point x="1335" y="1325"/>
      <point x="1336" y="1359"/>
      <point x="1336" y="1371" type="curve" smooth="yes"/>
      <point x="1336" y="1506"/>
      <point x="1095" y="1579"/>
      <point x="928" y="1579" type="curve" smooth="yes"/>
      <point x="698" y="1579"/>
      <point x="624" y="1468"/>
      <point x="624" y="1042" type="curve" smooth="yes"/>
    </contour>
    <contour>
      <point x="177" y="0" type="line"/>
      <point x="459" y="0" type="line"/>
      <point x="459" y="967" type="line" smooth="yes"/>
      <point x="459" y="1130"/>
      <point x="362" y="1470"/>
      <point x="479" y="1495" type="curve" smooth="yes"/>
      <point x="545" y="1509"/>
      <point x="622" y="1405"/>
      <point x="622" y="1314" type="curve"/>
      <point x="624" y="964" type="line"/>
      <point x="766" y="1314" type="line"/>
      <point x="771" y="1340"/>
      <point x="772" y="1319"/>
      <point x="772" y="1331" type="curve" smooth="yes"/>
      <point x="772" y="1466"/>
      <point x="648" y="1524"/>
      <point x="481" y="1524" type="curve" smooth="yes"/>
      <point x="254" y="1524"/>
      <point x="177" y="1415"/>
      <point x="177" y="1047" type="curve" smooth="yes"/>
    </contour>
    <contour>
      <point x="3" y="899" type="line"/>
      <point x="695" y="899" type="line"/>
      <point x="695" y="929" type="line"/>
      <point x="3" y="929" type="line"/>
    </contour>
    <contour>
      <point x="450" y="899" type="line"/>
      <point x="1142" y="899" type="line"/>
      <point x="1142" y="929" type="line"/>
      <point x="450" y="929" type="line"/>
    </contour>
    <contour>
      <point x="1072" y="0" type="line"/>
      <point x="1404" y="0" type="line"/>
      <point x="1404" y="929" type="line"/>
      <point x="1072" y="929" type="line"/>
    </contour>
  </outline>
</glyph>
<glyph name="f_j" format="2">
  <advance width="1015"/>
  <anchor x="270" y="0" name="bottom_1"/>
  <anchor x="810" y="0" name="bottom_2"/>
  <anchor x="540" y="0" name="caret_1"/>
  <anchor x="270" y="1529" name="top_1"/>
  <anchor x="810" y="1529" name="top_2"/>
  <outline>
    <contour>
      <point x="177" y="0" type="line"/>
      <point x="459" y="0" type="line"/>
      <point x="459" y="920" type="line"/>
      <point x="308" y="899" type="line"/>
      <point x="695" y="899" type="line"/>
      <point x="695" y="929" type="line"/>
      <point x="308" y="929" type="line"/>
      <point x="459" y="778" type="line"/>
      <point x="459" y="942" type="line" smooth="yes"/>
      <point x="459" y="1185"/>
      <point x="362" y="1525"/>
      <point x="479" y="1550" type="curve" smooth="yes"/>
      <point x="545" y="1564"/>
      <point x="669" y="1445"/>
      <point x="669" y="1354" type="curve" smooth="yes"/>
      <point x="669" y="1339"/>
      <point x="667" y="1299"/>
      <point x="660" y="1259" type="curve"/>
      <point x="883" y="1299" type="line"/>
      <point x="888" y="1325"/>
      <point x="889" y="1359"/>
      <point x="889" y="1371" type="curve" smooth="yes"/>
      <point x="889" y="1506"/>
      <point x="648" y="1579"/>
      <point x="481" y="1579" type="curve" smooth="yes"/>
      <point x="251" y="1579"/>
      <point x="177" y="1468"/>
      <point x="177" y="1042" type="curve" smooth="yes"/>
      <point x="177" y="778" type="line"/>
      <point x="328" y="929" type="line"/>
      <point x="3" y="929" type="line"/>
      <point x="3" y="899" type="line"/>
      <point x="328" y="899" type="line"/>
      <point x="177" y="910" type="line"/>
    </contour>
    <contour>
      <point x="561" y="-555" type="curve" smooth="yes"/>
      <point x="762" y="-555"/>
      <point x="925" y="-494"/>
      <point x="925" y="-68" type="curve" smooth="yes"/>
      <point x="925" y="929" type="line"/>
      <point x="633" y="929" type="line"/>
      <point x="633" y="32" type="line" smooth="yes"/>
      <point x="633" y="-211"/>
      <point x="674" y="-504"/>
      <point x="563" y="-526" type="curve" smooth="yes"/>
      <point x="491" y="-540"/>
      <point x="411" y="-432"/>
      <point x="411" y="-345" type="curve" smooth="yes"/>
      <point x="411" y="-326"/>
      <point x="415" y="-285"/>
      <point x="429" y="-256" type="curve"/>
      <point x="276" y="-290" type="line"/>
      <point x="271" y="-316"/>
      <point x="270" y="-350"/>
      <point x="270" y="-362" type="curve" smooth="yes"/>
      <point x="270" y="-497"/>
      <point x="365" y="-555"/>
    </contour>
  </outline>
</glyph>
<glyph name="f_t" format="2">
  <advance width="1162"/>
  <anchor x="291" y="0" name="bottom_1"/>
  <anchor x="872" y="0" name="bottom_2"/>
  <anchor x="581" y="0" name="caret_1"/>
  <anchor x="291" y="1529" name="top_1"/>
  <anchor x="872" y="1529" name="top_2"/>
  <outline>
    <contour>
      <point x="874" y="-33" type="curve" smooth="yes"/>
      <point x="990" y="-33"/>
      <point x="1132" y="5"/>
      <point x="1153" y="24" type="curve"/>
      <point x="1153" y="66" type="line"/>
      <point x="1102" y="36"/>
      <point x="985" y="11"/>
      <point x="939" y="11" type="curve" smooth="yes"/>
      <point x="811" y="11"/>
      <point x="889" y="208"/>
      <point x="889" y="726" type="curve" smooth="yes"/>
      <point x="889" y="899" type="line"/>
      <point x="1079" y="899" type="line"/>
      <point x="1079" y="929" type="line"/>
      <point x="889" y="929" type="line"/>
      <point x="889" y="1371" type="line" smooth="yes"/>
      <point x="889" y="1506"/>
      <point x="659" y="1579"/>
      <point x="481" y="1579" type="curve" smooth="yes"/>
      <point x="262" y="1579"/>
      <point x="177" y="1468"/>
      <point x="177" y="1042" type="curve" smooth="yes"/>
      <point x="177" y="929" type="line"/>
      <point x="3" y="929" type="line"/>
      <point x="3" y="899" type="line"/>
      <point x="177" y="899" type="line"/>
      <point x="177" y="0" type="line"/>
      <point x="459" y="0" type="line"/>
      <point x="459" y="899" type="line"/>
      <point x="607" y="899" type="line"/>
      <point x="607" y="372" type="line" smooth="yes"/>
      <point x="607" y="60"/>
      <point x="692" y="-33"/>
    </contour>
    <contour>
      <point x="465" y="929" type="curve" smooth="yes"/>
      <point x="459" y="929" type="line"/>
      <point x="459" y="942" type="line" smooth="yes"/>
      <point x="459" y="1185"/>
      <point x="369" y="1527"/>
      <point x="479" y="1550" type="curve" smooth="yes"/>
      <point x="552" y="1566"/>
      <point x="739" y="1445"/>
      <point x="739" y="1354" type="curve"/>
      <point x="739" y="1320" type="line"/>
      <point x="733" y="965"/>
      <point x="632" y="929"/>
    </contour>
  </outline>
</glyph>
<glyph name="five.dnom" format="2">
  <advance width="830"/>
  <note>
five
</note>
  <outline>
    <contour>
      <point x="359" y="-25" type="curve" smooth="yes"/>
      <point x="609" y="-25"/>
      <point x="774" y="110"/>
      <point x="774" y="282" type="curve" smooth="yes"/>
      <point x="774" y="512"/>
      <point x="523" y="563"/>
      <point x="377" y="563" type="curve" smooth="yes"/>
      <point x="318" y="563"/>
      <point x="253" y="557"/>
      <point x="137" y="447" type="curve"/>
      <point x="158" y="442" type="line"/>
      <point x="230" y="870" type="line"/>
      <point x="164" y="758" type="line"/>
      <point x="690" y="758" type="line"/>
      <point x="690" y="944" type="line"/>
      <point x="153" y="944" type="line"/>
      <point x="77" y="452" type="line"/>
      <point x="152" y="434" type="line"/>
      <point x="265" y="539"/>
      <point x="347" y="527"/>
      <point x="340" y="527" type="curve" smooth="yes"/>
      <point x="472" y="527"/>
      <point x="495" y="460"/>
      <point x="495" y="273" type="curve" smooth="yes"/>
      <point x="495" y="261"/>
      <point x="505" y="6"/>
      <point x="351" y="6" type="curve" smooth="yes"/>
      <point x="195" y="6"/>
      <point x="87" y="113"/>
      <point x="68" y="108" type="curve"/>
      <point x="51" y="90" type="line"/>
      <point x="91" y="76"/>
      <point x="167" y="-25"/>
    </contour>
  </outline>
</glyph>
<glyph name="four.osf" format="2">
  <advance width="1091"/>
  <outline>
    <contour>
      <point x="641" y="-378" type="line"/>
      <point x="897" y="-378" type="line"/>
      <point x="897" y="151" type="line"/>
      <point x="746" y="0" type="line"/>
      <point x="1055" y="0" type="line"/>
      <point x="1055" y="39" type="line"/>
      <point x="746" y="39" type="line"/>
      <point x="897" y="-85" type="line"/>
      <point x="897" y="406" type="line"/>
      <point x="641" y="406" type="line"/>
      <point x="641" y="-85" type="line"/>
      <point x="792" y="39" type="line"/>
      <point x="78" y="39" type="line"/>
      <point x="85" y="11" type="line"/>
      <point x="464" y="490"/>
      <point x="550" y="626"/>
      <point x="768" y="1043" type="curve"/>
      <point x="558" y="1043" type="line"/>
      <point x="460" y="695"/>
      <point x="270" y="338"/>
      <point x="32" y="0" type="curve"/>
      <point x="792" y="0" type="line"/>
      <point x="641" y="151" type="line"/>
    </contour>
  </outline>
</glyph>
<glyph name="m.rvrn" format="2">
  <advance width="1944"/>
  <note>
m
</note>
  <guideline x="469" y="741" angle="0"/>
  <anchor x="975" y="0" name="bottom"/>
  <anchor x="975" y="929" name="top"/>
  <outline>
    <contour>
      <point x="124" y="0" type="line"/>
      <point x="406" y="0" type="line"/>
      <point x="406" y="642" type="line" smooth="yes"/>
      <point x="406" y="826"/>
      <point x="591" y="919"/>
      <point x="691" y="919" type="curve" smooth="yes"/>
      <point x="827" y="919"/>
      <point x="860" y="749"/>
      <point x="860" y="546" type="curve" smooth="yes"/>
      <point x="860" y="0" type="line"/>
      <point x="1142" y="0" type="line"/>
      <point x="1142" y="604" type="line"/>
      <point x="1142" y="608" type="line" smooth="yes"/>
      <point x="1142" y="808"/>
      <point x="947" y="955"/>
      <point x="721" y="955" type="curve" smooth="yes"/>
      <point x="524" y="955"/>
      <point x="359" y="804"/>
      <point x="383" y="541" type="curve"/>
      <point x="406" y="710" type="line"/>
      <point x="406" y="929" type="line"/>
      <point x="124" y="929" type="line"/>
    </contour>
    <contour>
      <point x="1566" y="0" type="line"/>
      <point x="1848" y="0" type="line"/>
      <point x="1848" y="608" type="line" smooth="yes"/>
      <point x="1848" y="808"/>
      <point x="1653" y="955"/>
      <point x="1427" y="955" type="curve" smooth="yes"/>
      <point x="1230" y="955"/>
      <point x="1065" y="804"/>
      <point x="1089" y="541" type="curve"/>
      <point x="1102" y="643" type="line" smooth="yes"/>
      <point x="1125" y="825"/>
      <point x="1299" y="919"/>
      <point x="1397" y="919" type="curve" smooth="yes"/>
      <point x="1533" y="919"/>
      <point x="1566" y="749"/>
      <point x="1566" y="546" type="curve" smooth="yes"/>
    </contour>
  </outline>
</glyph>
<glyph name="nine.dnom" format="2">
  <advance width="845"/>
  <note>
nine
</note>
  <outline>
    <contour>
      <point x="158" y="-33" type="line"/>
      <point x="309" y="7"/>
      <point x="438" y="65"/>
      <point x="535" y="139" type="curve" smooth="yes"/>
      <point x="579" y="173"/>
      <point x="620" y="213"/>
      <point x="651" y="255" type="curve" smooth="yes"/>
      <point x="746" y="385"/>
      <point x="786" y="539"/>
      <point x="786" y="664" type="curve" smooth="yes"/>
      <point x="786" y="925"/>
      <point x="638" y="1004"/>
      <point x="417" y="1002" type="curve" smooth="yes"/>
      <point x="216" y="1000"/>
      <point x="56" y="938"/>
      <point x="56" y="720" type="curve" smooth="yes"/>
      <point x="56" y="548"/>
      <point x="175" y="413"/>
      <point x="395" y="413" type="curve" smooth="yes"/>
      <point x="527" y="413"/>
      <point x="546" y="450"/>
      <point x="585" y="548" type="curve"/>
      <point x="561" y="446" type="line"/>
      <point x="533" y="347"/>
      <point x="456" y="197"/>
      <point x="385" y="129" type="curve" smooth="yes"/>
      <point x="321" y="68"/>
      <point x="164" y="-13"/>
      <point x="158" y="9" type="curve"/>
    </contour>
    <contour>
      <point x="396" y="440" type="curve" smooth="yes"/>
      <point x="308" y="440"/>
      <point x="312" y="542"/>
      <point x="312" y="709" type="curve" smooth="yes"/>
      <point x="312" y="978"/>
      <point x="373" y="974"/>
      <point x="410" y="975" type="curve" smooth="yes"/>
      <point x="522" y="978"/>
      <point x="545" y="897"/>
      <point x="548" y="703" type="curve" smooth="yes"/>
      <point x="552" y="459"/>
      <point x="463" y="440"/>
    </contour>
  </outline>
</glyph>
<glyph name="nine.osf" format="2">
  <advance width="1181"/>
  <outline>
    <contour>
      <point x="249" y="-544" type="line"/>
      <point x="440" y="-493"/>
      <point x="597" y="-418"/>
      <point x="722" y="-319" type="curve" smooth="yes"/>
      <point x="793" y="-263"/>
      <point x="853" y="-199"/>
      <point x="903" y="-126" type="curve" smooth="yes"/>
      <point x="1022" y="47"/>
      <point x="1082" y="250"/>
      <point x="1082" y="453" type="curve" smooth="yes"/>
      <point x="1082" y="827"/>
      <point x="890" y="983"/>
      <point x="581" y="983" type="curve" smooth="yes"/>
      <point x="288" y="983"/>
      <point x="73" y="843"/>
      <point x="73" y="543" type="curve" smooth="yes"/>
      <point x="73" y="284"/>
      <point x="255" y="83"/>
      <point x="550" y="83" type="curve" smooth="yes"/>
      <point x="758" y="83"/>
      <point x="830" y="183"/>
      <point x="880" y="346" type="curve"/>
      <point x="852" y="281" type="line"/>
      <point x="825" y="102"/>
      <point x="750" y="-93"/>
      <point x="675" y="-206" type="curve" smooth="yes"/>
      <point x="571" y="-362"/>
      <point x="379" y="-480"/>
      <point x="249" y="-502" type="curve"/>
    </contour>
    <contour>
      <point x="547" y="113" type="curve" smooth="yes"/>
      <point x="364" y="113"/>
      <point x="334" y="311"/>
      <point x="334" y="533" type="curve" smooth="yes"/>
      <point x="334" y="877"/>
      <point x="428" y="953"/>
      <point x="567" y="953" type="curve" smooth="yes"/>
      <point x="776" y="953"/>
      <point x="835" y="782"/>
      <point x="837" y="513" type="curve" smooth="yes"/>
      <point x="839" y="219"/>
      <point x="701" y="113"/>
    </contour>
  </outline>
</glyph>
<glyph name="one.osf" format="2">
  <advance width="639"/>
  <outline>
    <contour>
      <point x="200" y="0" type="line"/>
      <point x="480" y="0" type="line"/>
      <point x="480" y="991" type="line"/>
      <point x="413" y="991" type="line"/>
      <point x="276" y="809"/>
      <point x="219" y="739"/>
      <point x="31" y="580" type="curve"/>
      <point x="60" y="546" type="line"/>
      <point x="134" y="604"/>
      <point x="222" y="685"/>
      <point x="273" y="748" type="curve"/>
      <point x="200" y="707" type="line"/>
    </contour>
  </outline>
</glyph>
<glyph name="six.dnom" format="2">
  <advance width="845"/>
  <note>
six
</note>
  <outline>
    <contour>
      <point x="428" y="-25" type="curve" smooth="yes"/>
      <point x="629" y="-23"/>
      <point x="789" y="37"/>
      <point x="789" y="251" type="curve" smooth="yes"/>
      <point x="789" y="420"/>
      <point x="670" y="553"/>
      <point x="450" y="553" type="curve" smooth="yes"/>
      <point x="319" y="553"/>
      <point x="300" y="517"/>
      <point x="260" y="421" type="curve"/>
      <point x="284" y="522" type="line"/>
      <point x="315" y="626"/>
      <point x="390" y="768"/>
      <point x="462" y="834" type="curve" smooth="yes"/>
      <point x="523" y="890"/>
      <point x="681" y="971"/>
      <point x="688" y="948" type="curve"/>
      <point x="688" y="990" type="line"/>
      <point x="456" y="929"/>
      <point x="287" y="830"/>
      <point x="196" y="709" type="curve" smooth="yes"/>
      <point x="99" y="580"/>
      <point x="59" y="430"/>
      <point x="59" y="306" type="curve" smooth="yes"/>
      <point x="59" y="67"/>
      <point x="189" y="-27"/>
    </contour>
    <contour>
      <point x="436" y="2" type="curve" smooth="yes"/>
      <point x="332" y="-1"/>
      <point x="301" y="54"/>
      <point x="297" y="268" type="curve" smooth="yes"/>
      <point x="293" y="507"/>
      <point x="383" y="526"/>
      <point x="449" y="526" type="curve" smooth="yes"/>
      <point x="537" y="526"/>
      <point x="533" y="427"/>
      <point x="533" y="262" type="curve" smooth="yes"/>
      <point x="533" y="-2"/>
      <point x="468" y="3"/>
    </contour>
  </outline>
</glyph>
<glyph name="slashlongcomb.case" format="2">
  <anchor x="560" y="721.5" name="_center"/>
  <outline>
    <contour>
      <point x="4" y="-53" type="line"/>
      <point x="184" y="-53" type="line"/>
      <point x="1116" y="1496" type="line"/>
      <point x="936" y="1496" type="line"/>
    </contour>
  </outline>
</glyph>
<glyph name="three.dnom" format="2">
  <advance width="895"/>
  <note>
three
</note>
  <outline>
    <contour>
      <point x="430" y="-13" type="curve" smooth="yes"/>
      <point x="667" y="-13"/>
      <point x="838" y="80"/>
      <point x="838" y="253" type="curve" smooth="yes"/>
      <point x="838" y="390"/>
      <point x="720" y="451"/>
      <point x="567" y="494" type="curve"/>
      <point x="568" y="475" type="line"/>
      <point x="727" y="521"/>
      <point x="810" y="638"/>
      <point x="810" y="742" type="curve" smooth="yes"/>
      <point x="810" y="885"/>
      <point x="673" y="983"/>
      <point x="452" y="983" type="curve" smooth="yes"/>
      <point x="217" y="983"/>
      <point x="70" y="867"/>
      <point x="73" y="699" type="curve"/>
      <point x="293" y="720" type="line"/>
      <point x="298" y="777"/>
      <point x="306" y="956"/>
      <point x="450" y="956" type="curve" smooth="yes"/>
      <point x="555" y="956"/>
      <point x="581" y="838"/>
      <point x="581" y="754" type="curve" smooth="yes"/>
      <point x="581" y="584"/>
      <point x="465" y="502"/>
      <point x="411" y="502" type="curve" smooth="yes"/>
      <point x="228" y="502" type="line"/>
      <point x="228" y="474" type="line"/>
      <point x="414" y="474" type="line" smooth="yes"/>
      <point x="450" y="474"/>
      <point x="559" y="465"/>
      <point x="559" y="261" type="curve" smooth="yes"/>
      <point x="559" y="219"/>
      <point x="588" y="13"/>
      <point x="434" y="13" type="curve" smooth="yes"/>
      <point x="317" y="13"/>
      <point x="292" y="144"/>
      <point x="292" y="222" type="curve" smooth="yes"/>
      <point x="292" y="250" type="line"/>
      <point x="56" y="270" type="line"/>
      <point x="56" y="236" type="line" smooth="yes"/>
      <point x="56" y="84"/>
      <point x="194" y="-13"/>
    </contour>
  </outline>
</glyph>
<glyph name="three.osf" format="2">
  <advance width="1188"/>
  <outline>
    <contour>
      <point x="545" y="-355" type="curve" smooth="yes"/>
      <point x="830" y="-355"/>
      <point x="1103" y="-211"/>
      <point x="1103" y="87" type="curve" smooth="yes"/>
      <point x="1103" y="281"/>
      <point x="987" y="469"/>
      <point x="779" y="440" type="curve"/>
      <point x="694" y="401" type="line"/>
      <point x="883" y="440"/>
      <point x="1010" y="558"/>
      <point x="1010" y="705" type="curve" smooth="yes"/>
      <point x="1010" y="880"/>
      <point x="831" y="1007"/>
      <point x="585" y="1007" type="curve" smooth="yes"/>
      <point x="338" y="1007"/>
      <point x="96" y="877"/>
      <point x="96" y="694" type="curve"/>
      <point x="244" y="660" type="line"/>
      <point x="244" y="806"/>
      <point x="330" y="977"/>
      <point x="574" y="977" type="curve" smooth="yes"/>
      <point x="718" y="977"/>
      <point x="786" y="858"/>
      <point x="786" y="693" type="curve" smooth="yes"/>
      <point x="786" y="467"/>
      <point x="659" y="450"/>
      <point x="520" y="412" type="curve" smooth="yes"/>
      <point x="293" y="350" type="line"/>
      <point x="303" y="318" type="line"/>
      <point x="509" y="372"/>
      <point x="544" y="383"/>
      <point x="590" y="383" type="curve" smooth="yes"/>
      <point x="777" y="383"/>
      <point x="836" y="199"/>
      <point x="836" y="46" type="curve" smooth="yes"/>
      <point x="836" y="-148"/>
      <point x="742" y="-321"/>
      <point x="515" y="-321" type="curve" smooth="yes"/>
      <point x="379" y="-321"/>
      <point x="194" y="-260"/>
      <point x="66" y="-150" type="curve"/>
      <point x="40" y="-160" type="line"/>
      <point x="134" y="-261"/>
      <point x="315" y="-355"/>
    </contour>
  </outline>
</glyph>
<glyph name="two.dnom" format="2">
  <advance width="885"/>
  <note>
two
</note>
  <outline>
    <contour>
      <point x="51" y="0" type="line"/>
      <point x="804" y="0" type="line"/>
      <point x="804" y="143" type="line"/>
      <point x="227" y="143" type="line"/>
      <point x="197" y="119" type="line"/>
      <point x="509" y="350"/>
      <point x="645" y="410"/>
      <point x="752" y="521" type="curve" smooth="yes"/>
      <point x="792" y="562"/>
      <point x="826" y="636"/>
      <point x="826" y="708" type="curve" smooth="yes"/>
      <point x="826" y="909"/>
      <point x="684" y="980"/>
      <point x="440" y="980" type="curve" smooth="yes"/>
      <point x="213" y="980"/>
      <point x="87" y="867"/>
      <point x="87" y="681" type="curve" smooth="yes"/>
      <point x="87" y="682"/>
      <point x="86" y="663"/>
      <point x="90" y="638" type="curve"/>
      <point x="345" y="659" type="line"/>
      <point x="345" y="689" type="line" smooth="yes"/>
      <point x="345" y="777"/>
      <point x="370" y="953"/>
      <point x="445" y="953" type="curve" smooth="yes"/>
      <point x="544" y="953"/>
      <point x="571" y="840"/>
      <point x="571" y="791" type="curve" smooth="yes"/>
      <point x="571" y="635"/>
      <point x="483" y="401"/>
      <point x="396" y="320" type="curve" smooth="yes"/>
    </contour>
  </outline>
</glyph>
<glyph name="two.osf" format="2">
  <advance width="983"/>
  <outline>
    <contour>
      <point x="54" y="-10" type="line"/>
      <point x="901" y="-10" type="line"/>
      <point x="901" y="150" type="line"/>
      <point x="221" y="103" type="line"/>
      <point x="194" y="83" type="line"/>
      <point x="354" y="165"/>
      <point x="588" y="338"/>
      <point x="672" y="411" type="curve" smooth="yes"/>
      <point x="807" y="527"/>
      <point x="852" y="635"/>
      <point x="852" y="731" type="curve" smooth="yes"/>
      <point x="852" y="889"/>
      <point x="721" y="1007"/>
      <point x="481" y="1007" type="curve" smooth="yes"/>
      <point x="240" y="1007"/>
      <point x="94" y="887"/>
      <point x="94" y="735" type="curve" smooth="yes"/>
      <point x="94" y="731"/>
      <point x="94" y="716"/>
      <point x="96" y="699" type="curve"/>
      <point x="272" y="669" type="line"/>
      <point x="272" y="690" type="line" smooth="yes"/>
      <point x="272" y="829"/>
      <point x="282" y="977"/>
      <point x="459" y="977" type="curve" smooth="yes"/>
      <point x="597" y="977"/>
      <point x="630" y="818"/>
      <point x="630" y="697" type="curve" smooth="yes"/>
      <point x="630" y="524"/>
      <point x="485" y="415"/>
      <point x="320" y="252" type="curve" smooth="yes"/>
    </contour>
  </outline>
</glyph>
<glyph name="w.rvrn" format="2">
  <advance width="1554"/>
  <note>
w
</note>
  <anchor x="778" y="0" name="bottom"/>
  <anchor x="778" y="929" name="top"/>
  <outline>
    <contour>
      <point x="996" y="-1" type="line"/>
      <point x="1125" y="-1" type="line"/>
      <point x="1546" y="929" type="line"/>
      <point x="1482" y="929" type="line"/>
      <point x="1133" y="161" type="line"/>
      <point x="1179" y="185" type="line"/>
      <point x="846" y="929" type="line"/>
      <point x="585" y="929" type="line"/>
    </contour>
    <contour>
      <point x="420" y="-1" type="line"/>
      <point x="549" y="-1" type="line"/>
      <point x="844" y="653" type="line"/>
      <point x="862" y="839" type="line"/>
      <point x="569" y="185" type="line"/>
      <point x="596" y="200" type="line"/>
      <point x="271" y="929" type="line"/>
      <point x="9" y="929" type="line"/>
    </contour>
  </outline>
</glyph>
<glyph name="zero.dnom" format="2">
  <advance width="920"/>
  <note>
zero
</note>
  <outline>
    <contour>
      <point x="468" y="-28" type="curve" smooth="yes"/>
      <point x="735" y="-16"/>
      <point x="859" y="148"/>
      <point x="859" y="472" type="curve" smooth="yes"/>
      <point x="859" y="714"/>
      <point x="722" y="983"/>
      <point x="466" y="983" type="curve" smooth="yes"/>
      <point x="212" y="983"/>
      <point x="61" y="787"/>
      <point x="61" y="480" type="curve" smooth="yes"/>
      <point x="61" y="230"/>
      <point x="195" y="-41"/>
    </contour>
    <contour>
      <point x="472" y="-8" type="curve" smooth="yes"/>
      <point x="437" y="-14"/>
      <point x="309" y="202"/>
      <point x="309" y="498" type="curve" smooth="yes"/>
      <point x="309" y="768"/>
      <point x="424" y="958"/>
      <point x="448" y="962" type="curve" smooth="yes"/>
      <point x="479" y="968"/>
      <point x="611" y="757"/>
      <point x="611" y="453" type="curve" smooth="yes"/>
      <point x="611" y="189"/>
      <point x="497" y="-4"/>
    </contour>
  </outline>
</glyph>
<glyph name="zero.osf" format="2">
  <advance width="1130"/>
  <outline>
    <contour>
      <point x="565" y="-36" type="curve" smooth="yes"/>
      <point x="838" y="-36"/>
      <point x="1055" y="185"/>
      <point x="1055" y="464" type="curve" smooth="yes"/>
      <point x="1055" y="743"/>
      <point x="838" y="964"/>
      <point x="565" y="964" type="curve" smooth="yes"/>
      <point x="292" y="964"/>
      <point x="75" y="743"/>
      <point x="75" y="464" type="curve" smooth="yes"/>
      <point x="75" y="185"/>
      <point x="292" y="-36"/>
    </contour>
    <contour>
      <point x="565" y="-6" type="curve" smooth="yes"/>
      <point x="430" y="-6"/>
      <point x="337" y="193"/>
      <point x="337" y="464" type="curve" smooth="yes"/>
      <point x="337" y="735"/>
      <point x="430" y="934"/>
      <point x="565" y="934" type="curve" smooth="yes"/>
      <point x="700" y="934"/>
      <point x="793" y="735"/>
      <point x="793" y="464" type="curve" smooth="yes"/>
      <point x="793" y="193"/>
      <point x="700" y="-6"/>
    </contour>
  </outline>
</glyph>
